<svg width="1288" height="829" viewBox="0 0 1288 829" fill="none" xmlns="http://www.w3.org/2000/svg">
<g clip-path="url(#clip0_5455_2103)">
<path d="M19.1297 208.481L15.9919 199.061L24.7081 192.432V192.084L30.9838 187.199L25.0568 191.386C25.7541 189.99 26.4514 188.944 27.1486 186.85C28.5432 186.85 30.2865 181.617 32.0297 177.779C34.1216 172.895 37.6081 164.87 40.7459 164.87C42.4892 158.939 43.8838 159.637 44.9297 157.893L52.2514 162.428V162.079L44.9297 155.102C45.627 153.706 46.3243 151.613 46.3243 150.915C46.3243 149.868 46.673 154.404 46.673 146.38C47.7189 140.448 47.7189 139.751 53.2973 132.424C55.3892 129.633 57.1324 130.68 58.1784 126.493C59.573 120.562 61.6649 110.793 62.3622 104.862L70.7297 104.513C68.9865 102.769 66.1973 99.6288 65.1514 96.8377H64.8027C64.4541 96.8377 64.4541 94.3955 64.4541 94.0466L64.8027 92.6511C64.8027 92.3022 64.8027 90.9066 64.8027 90.9066H66.546H66.1973C66.8946 90.5578 67.2432 90.9066 67.5919 90.9066H68.2892C68.6378 90.9066 69.3351 90.5577 70.0324 89.86L66.546 82.1845C70.7297 77.3001 70.0324 79.3934 68.9865 69.2757C68.6378 69.2757 68.2892 65.7868 67.9405 61.9491C67.2432 53.9247 65.8486 46.2492 65.5 38.9226C67.5919 37.5271 67.9405 36.8293 70.0324 35.4338C74.5649 37.5271 93.0432 49.0403 103.154 54.2736C104.2 54.9714 105.246 55.6691 106.292 56.018C106.641 56.018 106.641 56.3669 106.989 56.3669L105.943 57.0647C103.154 59.5069 101.759 60.5535 100.714 64.7402L101.759 65.438C103.154 66.1357 102.457 65.438 103.503 66.4846C104.2 67.1824 104.897 67.5313 104.897 69.6246C104.897 71.7179 102.805 73.8112 101.759 75.9045L93.0432 75.5556C93.0432 79.7423 93.7405 79.3934 94.7865 82.5334C100.016 81.4867 105.246 79.7423 109.43 76.9512C109.081 69.2757 107.338 63.6935 116.403 61.9491C116.054 57.7625 116.054 53.2269 115.705 49.0403C115.357 46.2492 115.357 43.807 115.008 41.0159C114.659 38.2248 114.311 34.0382 113.265 31.596C112.568 29.8516 111.87 28.1071 111.173 27.4094L111.522 24.9672H121.632L120.238 26.7116L120.586 27.4094H120.238L120.586 29.1538H128.257C130.349 29.1538 133.138 30.2005 135.578 30.8982V30.2005C150.222 35.0849 166.608 40.3182 170.443 41.7137C176.022 43.4581 179.857 45.5514 185.435 47.2959C193.454 49.7381 202.17 50.7847 210.886 52.1803C211.932 52.5292 213.327 52.5292 214.373 52.8781C216.116 53.2269 217.859 53.5758 219.603 53.9247C225.878 55.3203 230.759 57.7625 235.989 58.8091C241.916 60.2047 248.192 60.2047 254.119 61.2513C259.349 61.9491 265.276 64.0424 270.505 65.0891C271.9 65.0891 272.946 65.0891 273.992 65.0891L274.341 64.3913C277.478 65.0891 280.965 66.4846 284.451 67.1824L284.8 66.8335H289.681C293.168 66.8335 297.003 69.2757 300.838 69.9735V70.6712C326.638 74.8579 352.786 77.649 377.541 82.8823C377.889 82.8823 378.238 82.5334 378.586 82.5334C385.559 83.9289 393.23 84.6267 400.9 86.0222V84.9756C409.616 86.3711 418.332 88.1155 427.397 88.1155H443.086V88.8133L444.83 91.2555C444.481 90.5577 445.876 91.2555 445.876 91.2555C447.968 91.2555 449.711 91.2555 451.454 91.2555C454.941 91.2555 458.078 89.86 461.565 89.86C471.327 89.86 480.741 89.5111 490.851 89.86C491.549 89.86 491.897 89.86 492.595 89.86C500.265 95.4422 510.724 93.3488 512.816 93.6977C547.332 95.791 576.968 98.5821 608.695 95.791C623.686 94.3955 632.054 92.6511 648.092 93.6977C654.368 94.0466 660.992 91.9533 666.919 90.5577C667.268 90.5577 667.616 88.1155 667.965 88.1155H683.654C684.7 94.7444 685.397 94.7444 686.095 96.8377C703.527 95.791 712.243 102.071 728.978 98.5821C728.978 98.931 729.327 98.931 729.327 99.2799L730.373 101.024C730.722 101.722 731.07 102.769 731.419 103.467C732.465 105.909 732.116 107.304 733.511 109.049C735.254 108.351 735.603 106.955 736.997 105.211C743.97 107.304 748.503 108.7 753.035 113.584C759.659 112.538 763.495 110.444 771.165 110.095C777.092 110.095 786.505 109.746 790.689 112.886C784.065 120.562 785.459 116.724 777.789 121.26C773.257 124.051 769.77 127.889 766.284 131.377C763.495 134.168 759.659 139.402 756.87 143.24C755.476 144.984 754.081 147.426 752.687 149.171C751.989 149.868 750.943 151.613 750.246 151.962C747.108 155.102 748.503 151.264 747.457 154.753C748.851 155.799 747.805 155.451 749.897 155.799C758.962 157.544 766.284 150.217 772.211 151.264L772.559 159.986C771.514 160.335 770.816 158.242 770.119 162.428C768.027 162.428 768.376 165.568 768.376 170.453L772.559 169.406C772.559 168.359 772.559 166.964 772.559 166.266V165.917C772.559 165.568 772.908 165.219 772.908 164.87C773.257 164.522 773.257 164.522 773.257 164.173C773.257 164.173 773.605 164.173 773.605 163.824H778.835C778.835 162.777 779.184 162.777 779.184 162.777C780.23 158.591 784.762 159.288 793.478 155.102C802.195 150.915 807.076 143.937 813.7 138.006C820.324 132.075 826.251 125.795 835.665 123.353C831.83 131.029 824.508 131.029 825.903 143.937C835.665 141.146 836.711 141.495 844.73 146.38C848.914 149.171 855.538 155.102 862.859 153.008C867.043 151.613 872.97 144.286 876.805 141.844C879.595 139.751 883.081 139.751 886.568 138.704C891.1 137.308 891.797 134.517 894.238 135.215C895.284 137.657 894.935 139.751 895.284 142.891C899.468 145.333 897.027 146.728 902.257 146.031C906.092 145.682 908.881 144.286 911.322 142.891C917.249 147.426 924.222 155.799 916.203 154.753C911.322 154.055 909.927 153.357 907.138 159.637L890.751 155.451C888.311 158.242 887.265 158.591 885.522 162.777C884.476 162.777 882.732 164.173 880.292 166.266L868.786 175.337C867.392 173.942 868.089 174.988 868.089 172.895C868.089 172.197 868.786 170.802 868.786 169.406C862.859 171.848 863.905 173.244 858.676 170.453C857.978 181.966 841.592 206.737 845.078 213.366C848.216 213.017 847.519 212.319 849.262 208.83C852.4 202.55 855.886 196.619 862.511 193.479C861.465 205.69 857.281 219.646 854.841 229.763C853.446 233.601 852.4 243.37 852.749 251.394C853.097 256.279 854.143 259.767 855.887 263.605C859.373 271.281 858.676 269.187 858.676 278.956C858.676 286.632 861.116 289.074 864.951 297.447H878.549C890.054 283.143 892.495 271.63 888.311 252.441C887.265 247.556 885.87 242.323 884.127 238.485C882.384 234.997 880.292 229.414 879.595 229.414C879.595 229.414 879.246 226.972 879.246 226.274C879.246 216.855 881.338 203.597 882.384 193.828C891.1 192.432 886.219 187.897 892.146 185.106C895.632 190.339 893.192 192.781 897.027 192.781V180.221C903.651 178.477 902.605 177.779 904.697 175.686C903.303 173.942 904 174.29 901.908 172.895C905.046 159.288 917.249 166.615 919.341 167.313C926.313 169.755 936.076 172.895 942.7 174.29C940.608 184.408 940.957 180.221 945.489 186.85C953.857 199.759 936.076 215.11 937.819 221.041C941.305 232.554 945.141 210.575 960.481 208.132L962.573 213.017C963.27 215.11 963.619 216.157 964.665 217.901C966.408 220.692 967.803 223.832 969.546 227.321C969.895 228.019 970.243 230.461 970.592 230.461C973.032 234.648 976.868 243.719 975.822 248.254C973.73 249.301 968.849 248.603 967.454 250.348C966.06 255.232 966.06 261.163 964.316 266.396C962.573 272.676 960.83 275.467 960.132 283.143C967.105 284.887 971.987 287.678 978.262 289.423C982.097 287.329 985.235 284.887 989.419 282.445C993.603 280.352 998.135 279.305 1001.97 277.212C1007.9 274.072 1017.31 265.001 1021.49 260.814C1024.63 257.674 1027.07 255.232 1030.21 252.092C1035.79 245.812 1044.51 234.997 1051.83 230.81C1053.57 224.879 1055.66 226.274 1057.41 224.879C1054.96 218.25 1050.43 213.017 1048.34 207.783C1052.52 205.69 1059.85 204.295 1064.73 202.899C1070.65 201.504 1076.23 199.41 1081.81 198.015C1090.53 195.921 1081.81 201.155 1095.41 191.037C1099.59 188.246 1107.26 185.804 1109.7 183.71L1106.56 166.615C1100.29 166.615 1100.99 168.01 1097.5 164.87C1097.85 164.522 1097.85 164.522 1098.2 164.522C1100.99 154.404 1100.99 158.242 1106.22 154.055C1110.05 150.566 1105.87 145.333 1110.4 138.006C1123.3 117.073 1134.81 119.166 1147.01 114.282C1151.89 112.538 1156.77 110.095 1162 108.351C1171.41 105.211 1179.43 96.1399 1191.64 96.1399V95.791C1191.64 95.4422 1191.64 95.791 1191.64 91.6044C1191.64 87.4178 1194.77 84.6267 1202.44 82.1845C1202.79 62.9958 1203.14 49.0403 1206.28 24.6183C1207.32 20.4316 1208.72 13.105 1210.46 7.17398L1219.18 12.0584C1227.55 6.47621 1227.89 -2.94372 1239.05 0.89403C1242.19 1.94069 1243.58 2.28957 1245.33 4.73178C1248.81 9.26729 1252.65 20.0828 1255.44 24.2694C1256.83 30.5493 1258.23 34.0382 1258.58 37.5271C1268.69 38.9226 1268.34 43.1092 1273.92 47.9936C1278.8 52.1803 1282.98 56.3669 1287.86 58.8091V62.298C1287.86 64.0424 1284.72 66.1357 1283.33 68.229C1279.15 73.1134 1271.13 76.2534 1270.43 83.9289L1264.85 84.2778L1262.41 90.5577C1253.69 90.5577 1261.71 88.1155 1254.39 85.3245C1250.91 89.5111 1254.04 90.9066 1254.04 90.9066C1254.04 97.1866 1254.04 94.3955 1253.69 95.4422C1251.6 106.607 1233.82 127.191 1228.59 140.797C1224.76 151.613 1228.59 154.404 1234.52 159.288C1233.47 160.684 1232.78 159.986 1232.43 164.173C1228.94 170.453 1241.49 178.128 1244.98 184.757C1250.56 184.059 1253.69 182.315 1257.18 180.221C1255.79 172.197 1253 173.942 1252.3 168.708C1256.83 169.057 1259.97 172.546 1264.15 173.942C1261.36 184.408 1255.09 182.315 1245.68 191.735L1240.45 197.666C1237.31 196.619 1236.61 195.572 1234.52 194.177C1227.55 207.086 1237.31 202.55 1219.88 212.319C1212.55 216.506 1207.32 220.343 1200.7 225.228C1198.61 226.972 1196.52 225.228 1194.42 231.159C1190.59 231.159 1187.45 237.09 1184.31 241.625C1181.87 244.765 1179.78 248.254 1180.13 253.139C1180.48 260.465 1183.27 259.07 1188.85 260.116C1190.24 263.954 1187.8 283.841 1183.27 298.145C1181.18 301.983 1178.39 308.612 1175.6 310.356C1175.6 306.867 1175.95 304.076 1174.9 301.634C1169.32 300.587 1167.23 299.889 1162.7 298.843H1161.65C1162 302.68 1162 307.565 1165.49 309.658L1168.28 310.705C1169.67 311.751 1168.97 311.752 1170.72 312.798C1172.46 313.845 1174.55 314.194 1176.29 314.892C1177.34 327.103 1177.69 341.756 1173.51 353.269C1172.11 357.107 1170.72 360.247 1167.58 361.642C1167.93 353.618 1170.02 349.78 1170.37 343.5C1157.82 342.802 1164.09 329.545 1152.24 329.545C1152.94 318.729 1147.01 321.52 1146.66 315.589C1146.31 312.449 1148.75 306.518 1148.4 303.029C1148.05 300.936 1148.75 301.634 1147.01 300.587C1143.87 301.634 1145.26 300.936 1143.52 305.123C1140.04 313.496 1136.9 311.403 1141.08 320.474C1142.48 323.963 1143.87 328.149 1145.61 331.289C1147.36 334.778 1150.49 336.871 1152.59 339.314C1149.1 341.407 1149.8 339.314 1147.36 343.151C1151.19 349.082 1155.38 343.849 1155.38 356.06C1151.19 356.06 1150.15 354.316 1146.66 355.711C1148.75 358.153 1153.98 358.851 1156.07 364.433C1156.42 364.433 1156.42 364.782 1156.77 365.131C1155.72 365.829 1155.03 365.829 1154.33 366.178C1151.89 368.271 1153.63 365.829 1152.24 368.62C1153.63 371.76 1157.12 370.713 1158.51 375.598C1153.28 374.202 1153.98 373.504 1150.84 376.993C1153.28 378.389 1155.72 378.389 1158.51 378.04C1167.23 377.342 1167.58 375.598 1172.46 382.575C1176.64 388.506 1171.06 387.46 1176.29 398.275C1174.2 399.671 1169.67 400.717 1167.23 401.764C1163.05 403.509 1162 403.16 1157.47 402.811L1158.16 412.231C1164.09 411.882 1162.7 409.789 1167.93 409.091C1171.76 408.742 1174.55 409.789 1178.39 410.137L1180.83 403.857C1183.96 404.904 1182.92 404.206 1184.66 406.649C1189.19 413.975 1181.87 430.722 1168.28 424.093C1166.88 426.535 1165.49 429.326 1164.44 429.326C1163.74 429.326 1163.39 431.768 1162.7 433.164L1169.32 432.815L1167.23 443.63C1163.39 443.979 1162.35 443.63 1160.95 446.422C1167.23 448.864 1170.72 441.886 1175.25 440.49C1176.64 444.328 1177.34 446.422 1173.51 448.864C1166.18 453.399 1156.77 459.679 1150.84 465.261C1146.66 469.448 1149.8 479.915 1144.22 484.799C1138.64 489.335 1130.27 485.846 1127.14 493.521C1126.79 494.219 1126.44 494.219 1126.09 494.219C1118.77 512.71 1104.12 537.481 1089.83 547.947C1085.99 550.738 1085.3 551.087 1081.46 552.832C1081.46 556.321 1081.11 561.554 1080.42 561.554C1077.98 582.138 1072.05 593.651 1073.44 600.629C1074.49 605.862 1076.23 612.84 1076.23 618.073C1075.88 619.12 1065.08 625.051 1072.75 632.727C1072.75 632.727 1072.75 632.378 1072.75 632.029C1072.75 631.68 1073.09 630.982 1072.75 630.982V631.68C1072.75 624.702 1073.44 622.958 1077.98 622.609C1078.32 626.796 1079.37 633.076 1080.42 633.076C1085.99 653.311 1098.89 662.033 1109.35 676.337C1108.31 677.035 1107.96 676.686 1107.96 676.686C1107.96 676.686 1107.61 676.337 1106.91 676.337C1103.08 675.64 1104.12 677.035 1103.43 677.384C1108.31 685.408 1113.19 692.386 1117.72 702.504C1121.91 706.691 1125.39 717.506 1128.53 726.228C1133.41 740.532 1135.5 753.092 1132.02 769.49C1130.62 773.328 1128.53 778.561 1125.04 783.097C1121.91 784.143 1113.89 785.19 1110.4 784.492C1112.14 779.957 1111.79 782.748 1112.84 781.701C1114.58 779.957 1113.54 784.492 1114.93 779.608C1107.96 775.77 1105.17 776.817 1099.59 770.886C1098.89 769.839 1098.2 769.141 1097.5 769.141C1091.22 759.023 1085.99 751.348 1080.76 742.626C1072.05 728.67 1067.17 743.324 1060.54 728.321L1056.36 721.693C1059.5 716.459 1060.54 713.319 1055.66 709.482C1052.52 711.924 1054.96 711.924 1052.18 713.319C1049.74 709.482 1049.04 702.504 1048.69 702.504C1047.99 692.386 1052.18 679.826 1041.37 673.546C1034.74 669.709 1029.51 669.709 1023.94 664.475L1013.48 650.171L997.438 650.869V656.8C989.07 659.94 982.097 670.406 972.335 660.986C967.105 655.753 964.665 652.962 956.995 652.264L922.827 651.915C921.084 655.753 923.524 657.498 917.946 658.893C907.138 661.684 907.487 659.242 901.56 653.66L900.513 654.706C892.843 665.522 891.449 659.591 877.154 661.335C868.089 662.382 867.043 678.082 848.914 667.266C845.427 664.824 846.473 665.173 841.592 667.266C839.151 668.313 837.059 669.011 834.968 669.709C836.014 672.5 837.757 674.244 839.5 676.686H850.308L852.051 673.546L856.584 673.895L857.281 678.78L870.878 677.384C872.622 680.175 873.319 680.524 871.924 684.013C867.043 686.106 865.3 685.06 863.557 690.293C865.3 696.922 872.97 698.317 877.503 702.504C877.851 702.504 878.2 702.155 878.549 702.504C877.503 705.295 874.016 709.482 872.273 710.528C869.484 709.133 864.254 702.504 860.419 702.504H850.657C851.354 702.504 851.354 705.644 851.703 707.388C841.243 709.482 835.316 708.435 829.738 714.017C823.114 712.273 822.765 712.622 818.581 709.482C818.581 707.039 818.93 702.504 818.93 702.504H793.478C792.781 702.853 792.781 703.202 792.432 703.899C785.808 703.899 778.138 704.597 771.862 703.202C770.816 702.853 769.77 702.853 768.724 702.853H754.778L724.446 712.622C726.189 708.435 726.189 705.644 723.4 702.853H720.611C720.611 702.853 720.611 703.202 720.262 703.551L718.868 709.831C713.638 730.066 697.251 734.601 677.378 737.741L679.122 742.975C674.938 744.37 674.589 744.021 672.149 747.161C669.011 745.417 671.8 745.766 667.616 744.719C667.268 749.255 666.222 749.952 663.781 753.441C663.432 753.79 662.387 755.535 662.387 755.535C659.597 758.326 655.762 755.535 655.762 765.303C652.973 766.699 652.973 766.35 649.835 768.792L650.532 770.188L654.019 771.583C651.927 775.072 651.927 776.468 651.927 781.003L645.651 779.957L645.303 783.445L650.881 784.841C650.532 789.377 650.532 791.47 649.138 795.656C646.349 804.379 657.854 808.914 653.67 822.521C655.762 824.265 657.854 823.567 659.249 826.358C653.67 828.452 649.138 829.498 644.605 825.661C633.449 816.241 610.089 822.172 602.419 808.565C599.281 802.634 593.005 787.283 591.611 779.957C590.216 772.63 588.822 771.932 584.986 769.141M19.1297 208.481L21.9189 216.854M19.1297 208.481C18.4324 210.575 18.0838 212.319 17.7351 213.715L21.5703 216.506L17.7351 214.063C15.9919 221.39 16.6892 224.879 17.0378 230.81C17.3865 236.741 17.7351 240.23 14.9459 249.301C13.5514 254.534 14.9459 255.581 14.5973 260.465C13.2027 261.512 12.1568 262.21 11.4595 262.907C10.4135 263.605 8.67027 264.303 7.27568 265.699C4.83514 268.141 3.78919 268.839 1 270.932V283.492C1 284.19 2.74324 285.236 3.44054 285.934L6.22973 284.19H6.57838L4.13784 286.632C5.88108 289.772 7.27568 291.516 8.32162 298.843C9.71622 304.774 9.36757 313.496 7.97297 319.427L5.18378 323.265C6.57838 327.103 8.67027 327.8 10.0649 331.987C11.1108 335.825 11.8081 341.407 13.5514 341.407C13.5514 341.407 13.5514 344.198 13.9 344.198C19.4784 355.013 7.27567 352.222 17.7351 365.48H18.4324L18.7811 366.178C19.1297 366.527 19.4784 367.573 20.1757 367.922C23.6622 366.876 22.9649 367.224 24.7081 365.48C26.4514 372.109 27.1486 368.969 26.8 373.853L23.3135 374.551C21.9189 394.089 21.2216 391.646 32.0297 401.764C37.9568 407.695 32.3784 409.091 30.6351 413.626C29.5892 416.068 32.0297 428.628 35.5162 430.722C39.7 442.933 45.2784 451.655 47.0216 454.795C50.1595 459.679 53.6459 460.377 52.2514 468.052C51.5541 473.635 49.8108 478.519 49.1135 484.45C58.8757 489.683 61.3162 493.87 75.2622 494.219C75.9595 495.266 76.6568 495.963 77.354 495.963C80.8405 503.988 83.6297 509.57 89.2081 512.012C94.0892 514.454 97.5757 513.059 99.6676 517.943C102.108 524.223 100.016 523.874 107.338 525.27C122.678 528.41 124.77 552.832 126.165 562.949C126.514 568.881 126.514 568.183 126.862 569.578L187.527 579.696C193.105 590.163 194.5 587.023 205.308 592.605C208.795 594.349 216.465 601.327 223.089 604.816C229.713 608.305 232.503 608.654 243.311 614.585C249.935 618.073 256.211 622.26 261.789 626.098L272.249 633.773L279.222 638.658C283.754 641.798 298.746 641.798 305.37 642.495C323.849 644.24 341.978 647.031 360.108 648.427L361.851 634.122L408.919 637.96C412.405 643.891 411.708 645.287 416.938 650.869C421.819 656.451 437.508 666.917 440.646 671.104C441.692 672.5 440.995 671.104 441.343 672.849L444.132 678.78C445.876 681.571 445.527 684.711 446.573 688.548C447.619 692.735 450.059 699.015 453.197 702.853C462.611 712.97 478.649 729.019 491.897 731.81C495.384 726.926 506.541 715.762 511.77 711.924C515.954 708.784 520.138 706.342 526.762 706.69C532.341 706.69 538.616 708.784 541.057 712.273C548.03 724.135 544.892 719.25 554.654 727.624C558.141 730.415 556.397 730.764 558.141 734.95C562.673 745.417 575.224 759.721 583.592 769.141H584.986M584.986 769.141H584.638M64.803 95.4422C64.803 95.4422 77.703 91.9533 77.703 96.4889C77.703 101.024 71.0786 116.375 79.4462 119.166C87.8138 121.958 89.9057 114.282 102.108 120.911C114.311 127.54 116.403 123.702 127.56 125.795C138.716 127.54 158.589 126.842 158.589 126.842L185.784 131.726L202.868 132.773M202.868 132.773L217.511 56.0181M202.868 132.773L170.792 258.372M16.6895 219.995L170.792 258.372M170.792 258.372L305.371 286.283M236.687 60.5536L235.641 97.5355L245.054 109.398L249.935 122.306L259.698 128.586C259.698 128.586 247.495 157.195 252.027 165.219C256.908 173.244 263.184 158.591 263.184 158.591L264.579 176.733L272.249 183.013L273.295 189.99L278.176 197.666L277.827 205.341L294.911 207.086C294.911 207.086 307.114 200.806 309.903 201.852C312.692 202.899 319.665 209.179 319.665 209.179M108.035 244.068L85.0246 334.429L183.692 483.404M306.067 643.542L337.097 453.748L507.587 468.75M240.173 273.374C239.825 274.77 209.492 432.815 209.492 432.815C209.143 433.513 208.795 433.862 208.446 434.559C208.446 435.257 208.446 435.955 208.098 436.304C207.749 437.002 207.4 438.048 207.052 438.746C206.703 439.793 205.308 440.839 205.308 441.886C204.96 442.933 205.308 445.026 205.308 446.073C205.308 446.77 205.308 447.468 205.308 448.166C204.96 449.562 204.262 450.608 203.914 452.004C203.565 453.748 203.565 455.842 203.565 457.586C203.565 459.679 203.565 460.726 202.171 462.47C200.776 463.866 199.381 465.261 197.289 464.564C196.243 464.215 195.546 463.866 194.5 462.819C193.106 461.773 192.06 462.121 190.316 462.121C188.922 462.121 188.573 462.47 187.876 463.517C186.83 464.913 186.133 466.308 185.435 468.053C185.087 469.448 184.041 471.193 184.041 472.588C183.692 473.984 184.041 475.379 183.692 477.124C183.343 478.17 183.344 479.566 183.344 480.612C183.344 483.055 183.692 485.846 183.344 488.288C183.344 489.335 182.646 490.032 182.298 491.079C181.949 492.126 181.949 493.172 181.949 494.568C181.949 495.963 181.6 497.359 181.949 498.755C181.949 499.801 182.646 500.15 183.344 500.848C184.041 501.894 184.389 502.941 185.087 503.988C185.784 504.686 186.133 505.732 186.481 506.43C187.527 508.523 188.225 511.663 187.179 513.757C186.481 515.152 185.784 516.199 185.087 517.594C184.738 518.641 184.738 519.688 184.041 520.734C183.344 522.13 182.646 523.525 181.949 524.572C181.252 525.619 180.206 525.968 179.16 526.665C178.462 527.014 178.114 527.712 177.416 528.061C176.719 528.759 176.022 528.759 175.325 529.456C174.279 530.154 173.233 531.55 172.535 532.596C171.838 533.992 171.489 535.388 170.792 536.783C170.443 537.481 170.443 538.179 170.095 538.528C170.095 538.876 169.746 539.574 169.746 539.923C169.746 540.272 169.746 540.621 169.746 540.97C169.746 541.319 169.398 541.667 169.398 542.016C169.398 542.714 169.398 543.063 169.398 543.761C169.398 545.156 169.398 546.203 169.398 547.599C169.398 550.041 169.398 552.832 169.398 555.274C169.398 556.67 169.398 557.716 169.398 559.112C169.398 559.81 169.398 560.507 169.398 561.554C169.398 562.252 169.746 562.252 169.746 562.95C169.746 563.647 169.746 564.345 169.746 565.043C169.746 565.741 170.095 566.09 170.095 566.787C170.443 567.834 187.179 579.347 187.179 580.394M466.795 338.616L301.884 318.729L322.105 192.781L475.859 210.574L466.795 338.616ZM466.795 338.616L514.56 342.454V380.482H688.884C688.884 380.482 675.635 371.76 674.59 370.364C673.544 368.969 667.268 362.34 661.689 351.873C655.762 341.407 658.552 330.94 656.808 316.985C655.065 303.029 648.789 301.634 648.789 301.634C648.789 301.634 633.449 293.958 631.357 292.563C629.265 291.167 621.246 285.236 618.457 285.585C615.668 285.934 617.063 289.772 614.273 290.818C611.484 291.865 610.438 292.214 606.603 288.376C602.768 284.538 598.933 279.654 598.933 279.654L470.979 274.421L486.319 92.6511M351.044 325.358C350.695 327.103 337.446 453.748 337.446 453.748L209.841 432.815M507.587 468.75L513.514 380.133M507.587 468.75L694.114 472.588M687.838 380.133L683.654 390.6L692.719 409.091L696.554 582.138M696.554 582.138C695.508 582.138 694.462 582.138 693.417 581.789C692.371 581.441 691.325 580.743 690.627 580.045C689.93 579.347 689.233 578.998 688.187 578.301C687.141 577.952 686.444 577.254 685.746 576.905C684.352 576.207 683.306 576.207 682.26 575.858C680.168 575.161 678.425 572.37 677.03 570.974C675.287 568.881 672.846 572.021 671.452 573.067C670.406 573.765 669.36 574.463 668.314 574.812C667.268 574.812 666.222 574.812 665.176 574.812C664.13 574.812 662.735 574.812 661.689 575.161C660.644 575.858 659.249 576.556 657.854 576.905C655.414 577.254 653.322 577.952 650.881 577.952C648.441 577.952 645.652 578.301 643.56 577.952C642.862 577.952 642.514 577.603 641.816 577.603C641.468 577.603 640.771 577.603 640.422 577.603C639.027 577.603 637.981 577.603 636.587 577.603C635.541 577.603 634.146 577.952 633.1 577.603C632.403 577.254 631.357 576.556 630.66 576.207C628.568 574.812 626.825 573.416 625.081 572.021C623.687 570.974 620.549 570.974 618.806 571.672C617.76 572.37 616.714 572.718 615.668 573.416C614.971 574.114 614.273 574.463 613.576 574.812C612.879 575.161 612.181 575.858 611.484 576.207C609.392 577.254 606.952 574.812 605.557 573.416C604.162 571.672 602.071 570.974 599.979 570.276C597.887 569.927 595.795 569.578 593.703 568.881C591.96 568.183 589.868 566.787 587.776 566.787C586.033 566.787 584.289 566.09 582.546 565.392C580.454 564.694 579.06 562.601 576.968 561.554C575.225 560.507 573.481 559.112 571.738 557.716C570.344 556.321 567.554 557.019 565.462 557.019C564.417 557.019 563.022 556.321 561.627 555.972C559.884 555.623 558.489 555.274 557.095 554.576C557.443 554.576 557.792 554.227 557.792 553.879M696.554 582.138C697.949 582.138 698.646 581.441 700.041 581.789C702.481 582.487 703.876 584.232 704.922 586.325C705.619 587.72 706.317 588.767 706.665 590.163C707.014 590.86 706.665 591.907 707.014 592.605C707.362 593.303 707.362 594.349 707.362 595.047C707.711 596.443 707.711 598.187 708.06 599.583C708.06 600.629 708.408 600.978 708.408 602.025C708.408 602.723 708.408 603.769 708.408 604.467C708.408 607.258 709.803 609.7 709.803 612.491C709.803 613.887 710.152 615.282 710.152 616.678C710.152 617.725 710.152 619.12 710.152 620.167C710.152 620.865 710.152 621.562 710.152 622.26C710.152 622.609 710.5 622.958 710.5 623.307C710.5 624.354 710.5 625.749 710.5 626.796C710.5 627.842 710.152 628.889 710.152 629.587C709.803 630.634 709.803 631.331 709.803 632.727C709.803 633.773 709.454 634.82 709.803 635.867C710.152 636.913 710.849 637.96 711.198 638.658C712.941 641.1 713.987 643.891 715.73 646.333C717.125 648.078 718.519 649.822 719.914 651.567C720.611 652.264 720.96 652.962 721.308 653.66C721.657 654.009 722.006 654.707 722.354 655.404C722.703 656.102 722.703 656.451 723.052 657.149C723.4 657.847 723.749 658.893 723.749 659.591C724.098 660.987 724.098 661.684 724.098 663.08C724.098 664.127 724.098 665.173 724.098 666.22C724.098 667.615 723.749 668.662 723.4 669.709C723.052 670.755 722.354 671.802 722.006 673.198C721.657 673.895 721.657 673.895 721.308 674.593C720.96 675.291 720.611 676.338 720.262 677.035C719.217 679.478 718.171 681.92 717.473 684.362C716.776 686.106 716.079 688.549 715.381 689.944C714.684 691.689 714.335 694.48 715.033 696.224C715.381 697.271 715.381 698.317 715.73 699.015C716.079 700.062 718.868 703.202 718.868 704.248M482.136 485.148L557.095 485.497L557.444 553.878M695.509 492.126L806.379 487.241C806.379 487.241 807.425 492.823 803.938 497.708C800.801 502.592 801.498 505.383 801.498 505.383C801.498 505.383 813.701 505.383 817.187 505.034M480.741 182.664L643.211 188.246M647.743 264.303C649.138 262.907 766.981 265.698 766.981 265.698M666.222 360.945C666.222 360.945 744.319 360.945 743.97 360.945C743.97 360.596 745.016 359.2 745.714 358.851C746.76 358.503 747.805 358.154 748.851 357.805C749.549 357.456 750.246 357.107 750.595 356.758C750.943 356.409 750.943 356.409 751.292 356.06C751.641 355.711 751.641 355.711 751.641 355.363C752.687 353.618 754.778 353.618 756.173 353.618C758.265 353.618 759.311 355.363 760.008 357.107C760.357 357.456 760.705 358.154 761.054 358.503C761.403 358.851 761.403 359.549 761.751 359.898C762.1 360.945 762.449 361.991 762.797 363.038C763.843 365.48 765.238 367.923 765.935 370.365C766.284 371.411 766.632 372.807 766.981 373.854C767.33 374.9 768.027 376.296 768.027 377.342C768.027 377.691 768.027 378.04 768.027 378.389C768.027 378.738 768.027 378.738 768.376 379.087C768.376 379.436 768.376 379.785 768.376 380.134C768.376 380.134 768.376 380.482 768.724 380.482C768.724 381.18 768.724 381.878 768.724 382.227C768.724 382.925 769.073 383.622 769.422 384.32C769.77 385.367 770.816 386.065 771.514 387.111C772.211 387.809 772.559 388.507 773.257 388.856C773.605 389.553 773.954 390.251 774.303 390.6C774.651 390.949 775 391.298 775.349 391.647C775.697 392.345 776.046 392.693 776.395 393.391C776.743 393.74 777.092 394.438 777.441 395.136C778.138 395.833 778.487 396.531 779.184 397.229C780.23 398.624 781.276 399.671 782.322 400.718C783.368 401.764 784.762 402.811 785.808 403.858C787.203 405.602 787.9 406.998 789.643 408.044C790.341 408.393 791.387 408.393 792.084 408.393C792.433 408.393 793.13 408.393 793.478 408.393C794.176 408.393 794.873 408.044 795.57 408.044C796.616 408.044 797.662 408.044 798.708 408.044C799.057 408.044 799.406 408.393 799.754 408.393C800.103 408.742 800.451 408.742 800.8 409.091C801.497 409.789 801.149 411.184 801.149 412.231C801.149 412.929 801.149 413.627 801.149 414.324C801.149 415.022 800.8 415.72 800.451 416.418C800.103 417.115 800.103 417.464 799.754 418.162C799.406 418.86 799.057 419.209 798.708 419.907C798.36 420.953 798.011 422.349 798.011 423.395C798.011 424.442 797.662 425.838 798.011 426.884C798.36 427.582 798.36 427.931 798.708 428.629C798.708 428.978 798.708 429.326 799.057 429.326C799.057 430.024 799.057 430.373 799.057 431.071C799.754 433.862 801.497 435.606 803.589 437.351C805.333 438.746 807.076 439.793 809.168 440.84C810.562 441.886 811.608 442.933 812.654 443.98C813.7 444.677 814.746 445.724 815.443 446.422C815.792 446.771 816.489 447.12 816.838 447.469C817.187 447.817 817.535 448.166 817.884 448.515C818.581 449.213 819.278 449.562 819.976 450.609C820.673 451.306 820.673 451.655 821.022 452.702C821.022 453.4 821.37 454.097 821.37 454.446C821.37 455.144 821.022 455.842 820.673 456.54C820.324 457.237 819.976 457.935 819.976 458.284C819.976 458.633 819.976 458.633 819.976 458.982C819.976 458.982 819.976 459.331 819.627 459.331C819.627 460.028 819.627 460.377 819.627 460.726C820.324 462.122 820.673 463.168 821.719 463.866C823.114 464.913 824.159 465.959 825.554 467.355C826.251 468.053 827.297 468.751 828.343 469.448C829.041 470.146 830.087 470.844 830.784 471.542M817.186 506.081C817.186 505.732 817.186 505.732 817.186 506.081ZM817.186 506.081C816.838 506.081 816.838 506.43 816.838 506.779C816.838 507.128 816.838 507.477 816.838 507.825C816.838 508.523 816.838 509.221 816.838 509.57C816.838 510.268 816.838 510.965 816.838 511.663C816.489 512.71 816.14 513.757 815.443 514.454C814.049 516.548 813.7 519.339 812.305 521.432C810.911 523.525 809.865 525.968 808.47 528.061C807.773 529.108 806.727 530.503 805.681 531.55C804.984 532.247 803.938 533.294 803.24 533.992C802.892 534.341 802.543 534.69 802.195 535.039C800.8 536.434 799.405 537.481 798.708 539.225C798.359 539.923 798.011 540.97 797.662 541.667C796.616 543.063 797.662 544.459 798.359 545.854C798.708 546.552 799.405 547.25 799.754 548.296C800.103 548.994 800.103 549.343 800.103 550.041C800.103 551.436 799.754 553.181 798.708 554.576C798.011 555.623 797.662 556.669 797.313 557.367C796.616 558.414 795.919 559.809 795.222 560.856C794.873 561.205 794.524 561.903 794.176 562.601C793.827 563.298 793.478 563.996 793.13 564.345C792.781 564.694 792.432 565.043 792.084 565.392C791.735 565.741 791.386 566.438 791.038 566.787C790.689 567.485 789.992 567.834 789.643 568.532C789.295 568.881 789.295 569.578 788.946 569.927C788.597 570.276 788.597 570.276 788.249 570.625C787.9 570.974 787.9 570.974 787.9 571.323C787.551 571.672 787.203 572.02 786.854 572.369C786.157 573.067 784.762 574.463 784.762 575.509C784.413 576.556 784.762 577.254 784.762 578.3C784.413 579.347 784.413 580.045 784.413 581.091C784.413 583.185 784.413 585.278 784.413 587.371C784.413 588.418 784.413 589.465 784.762 590.511C784.762 591.558 785.111 592.256 785.459 593.303C785.808 594.349 785.808 595.396 785.808 596.443C785.808 596.791 785.808 597.489 785.808 597.838C785.808 598.187 786.157 598.536 786.157 598.885C786.157 600.629 786.157 602.374 786.157 604.118C786.157 604.816 786.157 605.862 786.157 606.56C786.505 607.607 786.505 608.654 786.854 609.7C787.203 610.398 787.551 611.096 787.9 612.142C788.249 612.491 788.249 613.189 788.597 613.538C788.946 614.236 789.643 615.282 789.992 615.98C790.34 616.678 790.689 617.376 791.038 618.073C791.386 618.771 791.735 619.469 792.084 620.516C792.432 621.213 793.13 621.911 793.13 622.958C793.13 623.656 793.13 624.353 793.13 625.051C793.13 626.796 791.735 627.493 790.34 628.191C788.597 629.238 787.203 630.285 786.157 632.029C785.111 634.122 784.413 636.216 783.367 638.309C782.322 640.751 781.276 642.844 779.532 644.938C778.835 645.984 778.138 647.031 777.44 648.078C777.092 648.427 777.092 648.775 776.743 649.124C776.395 649.473 776.395 649.822 776.395 650.171C776.395 650.869 776.395 651.915 776.395 652.613C776.395 653.66 776.395 654.358 776.743 655.404C777.092 656.451 777.092 657.498 777.44 658.544C777.44 659.591 777.44 660.986 777.44 662.033C777.44 662.731 777.092 663.778 778.138 663.778C778.486 663.778 778.835 663.778 779.184 663.778C779.532 663.778 779.881 664.126 780.23 664.126C780.578 664.126 780.927 664.126 781.276 664.126C781.624 664.126 781.973 664.475 782.322 664.475C783.019 664.475 784.065 664.824 784.762 664.824C785.459 664.824 786.157 665.173 786.854 665.173C787.551 665.173 788.249 665.173 788.946 665.173C789.643 665.173 790.34 665.173 791.386 665.173C792.432 664.824 793.478 664.824 794.873 664.824C797.313 664.824 799.405 664.475 801.497 664.126C802.195 664.126 802.543 663.778 803.24 663.778C803.589 663.778 803.938 663.778 804.635 663.778C805.332 663.778 805.681 663.778 806.378 663.778C807.076 663.778 807.424 663.429 808.122 663.429C810.213 663.429 811.957 663.429 814.049 663.429C814.746 663.429 815.095 663.08 815.792 663.08C816.489 663.08 816.838 663.08 817.535 663.08C818.581 663.08 819.278 663.08 820.324 663.08C821.022 663.08 821.719 663.08 822.416 663.08C822.765 663.08 823.113 663.08 823.462 663.08C823.811 663.08 824.159 663.429 824.508 663.429C825.205 663.429 825.903 663.429 826.6 663.429V663.08C828.343 663.429 829.389 663.778 831.132 663.778C831.83 663.778 832.527 664.126 833.573 664.126C834.27 664.126 834.619 664.475 835.665 664.475C836.711 664.475 837.059 664.475 837.059 665.522C837.059 666.22 837.059 667.266 837.059 667.964C837.059 668.313 836.711 668.313 836.711 668.662C836.711 669.011 836.711 669.36 836.711 669.709C836.362 670.406 836.013 670.755 836.013 671.453H835.665M708.408 603.071C711.895 603.071 724.446 603.42 727.933 603.769L785.46 602.374M633.101 96.4888C633.101 97.5354 632.752 102.071 632.752 103.118C632.752 103.466 632.752 103.815 632.752 104.164C632.752 104.862 632.403 105.211 632.403 105.56C632.055 106.955 632.055 108.351 632.055 109.746C632.055 111.142 632.055 112.886 632.055 114.282C632.055 116.026 632.752 117.073 633.101 118.817C633.449 119.515 633.449 120.213 633.798 120.911C634.147 121.609 634.844 122.306 635.193 123.004C635.89 124.4 636.936 125.795 637.982 126.842C638.679 127.889 639.725 129.284 640.074 130.68C640.422 131.377 640.422 132.424 640.771 133.122C640.771 134.168 640.771 134.866 640.771 135.913C640.771 138.006 640.771 139.751 640.771 141.844C640.771 142.891 640.771 144.286 641.12 145.333C641.12 146.031 641.12 146.728 641.468 147.426C641.817 148.473 641.817 149.171 641.817 150.217C641.817 150.915 641.817 151.613 641.817 151.962C641.817 152.659 642.166 153.357 642.166 154.055C642.166 155.451 642.514 156.497 642.514 157.893C642.514 158.591 642.863 159.637 642.863 160.335C642.863 161.382 642.863 162.428 642.863 163.475C642.863 164.522 642.863 165.568 642.863 166.615C642.863 167.313 643.211 168.01 643.211 169.057C643.211 169.406 643.211 169.755 643.211 170.453C643.211 170.802 643.56 171.15 643.56 171.499C643.56 171.848 643.56 172.197 643.56 172.546C643.56 172.895 643.56 173.244 643.909 173.593C643.909 173.941 643.909 174.29 643.909 174.29C643.909 174.639 643.909 174.988 644.257 175.337C644.257 176.035 644.257 176.733 644.257 177.43C644.257 178.128 644.606 178.477 644.606 179.175C644.606 180.221 644.606 180.919 644.955 181.966C644.955 182.664 644.955 183.013 644.955 183.71C644.955 184.059 645.303 184.408 645.303 184.757C645.303 185.106 645.303 185.455 645.303 185.804C645.303 186.501 645.303 187.199 645.303 187.548C644.955 188.246 644.606 189.292 644.257 189.99C644.257 190.339 643.909 190.688 643.56 191.386C643.56 191.735 643.56 192.084 643.211 192.084C643.211 192.432 642.863 192.781 642.863 193.13C642.863 193.479 642.863 193.828 642.863 193.828C642.863 194.177 642.514 194.177 642.514 194.526C642.514 195.224 642.514 195.921 642.514 196.27C642.514 197.666 642.514 198.712 642.514 200.108C642.514 200.806 642.514 201.155 642.863 201.852C642.863 202.201 643.211 202.55 643.211 202.899C643.211 203.248 643.211 203.597 643.211 203.946C643.56 204.643 643.56 205.69 643.909 206.388C643.909 206.737 644.257 207.435 644.606 207.783C645.303 208.83 646.001 210.226 647.047 211.272C648.093 211.97 648.441 213.366 648.79 214.761C648.79 215.459 649.138 215.808 649.138 216.157C649.138 216.506 649.138 216.854 649.138 217.203C649.487 218.599 649.487 219.646 649.487 220.692C649.487 221.739 649.487 223.134 649.487 224.181C649.487 225.577 649.138 226.623 649.138 227.67C649.138 228.019 649.487 228.717 649.487 229.066C649.487 229.763 649.836 230.461 649.836 231.159C649.836 232.903 649.487 234.997 649.836 236.741C650.533 239.532 650.184 243.021 650.184 245.812C650.184 247.556 650.184 249.65 650.184 251.394C650.184 252.092 650.184 252.79 650.184 253.488C650.184 254.883 650.184 255.93 649.836 257.325C649.836 257.674 649.487 257.674 649.487 258.023C649.487 258.372 649.487 258.721 649.487 259.07C649.487 259.767 649.487 260.465 649.487 260.814C649.487 261.163 649.836 261.512 649.836 261.512C649.836 261.861 649.836 262.21 649.836 262.559C649.836 263.605 649.487 265.001 648.79 265.699C648.441 266.047 648.093 266.047 647.395 266.396C646.698 266.745 646.349 267.443 646.349 268.141C646.349 269.885 646.349 271.63 645.652 273.723C645.303 274.77 644.955 275.816 645.303 276.863C645.303 277.212 645.652 277.561 645.652 277.91C646.001 278.607 646.001 279.305 646.001 280.352C646.001 281.398 646.001 282.445 646.698 283.492C647.047 284.538 647.047 285.934 647.395 286.981C647.744 288.376 648.093 289.772 648.093 291.167C648.093 292.563 647.744 293.958 647.744 295.354C647.744 296.052 647.744 296.749 648.093 297.447C648.093 297.796 648.441 298.494 648.441 299.192C648.441 299.541 648.441 299.54 648.441 299.889C648.441 300.238 648.441 300.587 648.441 300.587C648.441 300.936 649.138 301.983 649.487 301.285M748.852 155.799C748.503 156.148 742.227 157.893 742.227 158.591C741.879 159.637 740.833 162.428 740.833 163.475C740.833 164.522 740.484 165.917 740.135 166.964C740.135 168.011 740.135 169.057 740.135 170.104C740.135 172.546 740.833 174.639 740.833 176.733C740.833 177.082 740.833 177.43 741.181 177.779C741.181 178.128 741.181 178.826 741.181 179.175C741.181 179.873 741.181 180.57 741.181 181.268C741.181 181.966 741.181 182.315 740.833 183.013C740.484 183.361 740.135 184.059 739.787 184.408C739.438 185.106 738.741 185.455 738.044 185.804C737.695 186.153 737.346 186.153 736.998 186.501C736.649 186.501 736.649 186.85 736.3 186.85C735.254 187.548 734.557 188.246 733.86 188.944C733.511 189.641 732.814 190.339 732.117 191.037C731.768 191.386 731.071 191.735 730.722 192.084C730.373 192.781 730.373 193.479 729.676 194.177C728.63 195.921 728.979 197.317 729.327 199.41C729.327 200.457 729.676 201.155 729.676 202.201C729.676 203.248 729.676 203.946 730.025 204.992C730.373 205.69 730.373 206.388 731.071 207.086C731.419 207.435 731.768 208.132 732.117 208.83C732.117 209.528 732.117 210.226 732.117 210.923C732.117 211.272 732.117 211.621 732.117 212.319C732.117 212.668 732.116 213.017 731.768 213.366C731.768 213.715 731.768 214.063 731.768 214.412C731.768 215.11 731.419 215.808 731.419 216.506C731.419 217.203 731.419 218.25 731.419 218.948C731.419 219.995 731.768 221.041 731.768 222.088C731.768 222.786 731.768 223.832 732.465 224.53C733.162 225.577 733.86 227.321 734.906 228.368C735.603 229.066 736.649 229.414 737.346 229.763C738.044 230.112 738.392 230.461 739.089 230.81C739.438 231.159 740.135 231.159 740.484 231.508C741.53 232.206 742.227 232.903 743.622 233.252C744.668 233.95 746.062 234.299 747.108 234.997C749.2 235.694 750.944 236.741 752.687 237.788C754.43 238.834 756.173 239.532 757.917 240.579C758.265 240.928 758.962 240.928 759.311 241.277C759.66 241.625 760.008 241.974 760.357 242.323C760.706 242.672 761.403 243.021 761.752 243.37C762.1 243.719 762.449 244.068 762.449 244.417C763.146 245.114 763.495 245.812 763.844 246.859C764.192 247.208 764.192 247.557 764.541 248.254C764.541 248.952 764.541 249.301 764.889 249.999C765.238 251.045 765.238 252.441 765.587 253.488C765.587 253.836 765.935 254.534 765.935 254.883C765.935 255.232 765.935 255.581 765.935 256.279C765.935 256.628 766.284 256.976 766.284 257.674C766.284 258.023 766.284 258.721 766.284 259.07C766.284 260.116 766.633 260.814 766.633 261.861C766.633 262.559 766.981 263.256 766.981 263.605C766.981 263.954 766.981 264.303 766.981 264.652C766.981 265.001 766.981 265.35 767.33 265.699C767.33 266.396 767.33 266.745 767.679 267.443C768.027 268.141 768.376 268.839 768.725 269.536C769.073 269.885 769.073 270.583 769.422 271.281C769.771 271.63 770.119 271.979 770.119 272.327C770.468 273.374 770.816 274.072 771.514 274.77C771.862 275.467 772.211 275.816 772.56 276.514C772.908 277.212 773.606 277.561 773.954 278.259C775 279.654 776.046 280.701 777.092 282.096C778.138 283.143 778.835 284.19 779.881 285.236C780.23 285.585 780.927 286.283 781.276 286.632C781.625 286.981 781.625 287.33 781.973 287.678C782.322 288.376 782.322 289.074 783.019 289.423C784.065 289.772 785.46 289.772 786.506 289.772C787.9 289.772 789.295 289.772 790.689 290.121C792.084 290.47 793.479 290.47 795.222 290.47C796.268 290.47 797.662 290.47 798.708 290.47C799.754 290.47 800.8 290.121 801.846 290.121C802.892 290.121 803.938 290.121 804.984 290.121C805.681 290.121 806.03 290.121 806.727 289.772C807.425 289.772 808.122 289.772 809.168 289.423L860.768 288.376M866.346 299.889L860.419 393.391C860.419 394.089 859.373 394.438 859.025 394.786C858.676 394.786 858.327 394.786 858.327 395.135C857.979 395.484 857.63 396.182 857.63 396.531C857.281 396.88 857.281 397.578 856.933 397.926C856.933 398.624 856.933 398.624 857.281 398.973C857.979 399.322 859.025 400.02 859.373 400.717C859.722 401.415 859.373 402.113 859.722 403.16C859.722 403.509 859.722 403.509 860.071 403.509C860.071 403.857 860.071 403.857 860.071 404.206C860.071 404.555 860.419 405.253 860.419 405.602C861.117 406.997 862.511 408.044 862.86 409.789C863.208 410.486 863.208 411.184 863.208 412.231C863.208 412.929 863.208 413.277 862.86 413.975C862.86 414.673 862.511 415.022 862.162 415.371C862.162 415.72 862.162 416.068 861.814 416.068C861.814 416.417 861.465 416.417 861.465 416.766C861.117 417.115 860.768 417.813 860.419 418.511C860.071 419.557 859.722 420.604 859.025 421.651C858.676 422 858.327 422 858.327 422.348C858.327 423.046 858.676 422.697 859.025 422.697C860.071 422.697 861.117 422.697 861.814 423.046C863.557 423.744 865.3 424.791 866.346 426.186C866.695 426.535 867.044 426.884 867.392 427.233C867.741 427.582 867.392 427.931 867.741 428.28C867.741 428.628 867.741 428.628 868.09 428.628C868.09 428.977 868.09 429.326 868.09 429.326C868.09 429.675 868.438 429.675 868.438 430.024C868.438 430.373 868.438 430.373 868.438 430.722C868.438 431.071 868.787 431.419 868.787 431.768C868.787 432.117 868.787 432.815 868.787 433.164V433.513C868.787 433.862 868.787 433.862 869.135 434.211C869.135 434.559 869.484 434.908 869.484 435.257C869.833 435.257 869.833 435.257 869.833 434.908M817.535 506.081C817.535 505.732 817.535 505.035 817.535 504.686C817.535 503.988 817.884 503.639 817.884 502.941C817.884 502.593 817.884 502.244 817.884 501.895C817.884 501.895 817.884 501.546 818.232 501.546C818.232 501.197 818.232 500.848 818.232 500.848C818.232 499.453 817.884 497.708 818.581 496.313C818.93 495.615 819.976 494.917 820.324 494.219C821.022 493.521 821.37 492.475 821.719 491.777C822.068 491.079 822.416 490.381 822.765 489.684C823.114 489.335 823.114 488.986 823.462 488.637C823.811 487.939 823.811 487.59 824.159 486.893C824.508 486.544 824.508 486.195 824.857 485.846C825.205 485.148 825.554 484.799 825.903 484.45C826.6 483.753 826.949 483.055 827.646 482.357C827.995 481.659 828.692 480.962 829.041 480.264C829.389 479.566 829.738 478.868 830.086 478.17C830.435 477.473 830.435 476.775 830.784 476.426C830.784 476.077 830.784 475.728 831.132 475.379C831.481 475.03 831.481 474.682 831.481 473.984C831.481 473.635 832.178 472.937 832.527 472.937C832.876 472.937 833.224 472.588 833.224 472.588C833.922 472.239 834.27 471.891 834.968 471.542C835.665 471.193 836.362 470.844 836.711 470.146C837.408 469.448 838.454 468.751 839.151 467.704C839.5 467.006 840.197 466.657 840.895 465.959C841.592 465.262 842.289 464.215 843.335 463.517C843.684 463.168 844.032 463.168 844.381 462.819C845.078 462.471 845.427 461.773 845.776 461.075C847.17 459.68 848.565 458.982 849.611 457.586C849.959 457.237 850.308 456.54 850.308 455.842C850.657 455.144 851.005 454.446 851.005 453.4C851.354 452.353 852.051 450.957 852.749 449.911C854.143 448.166 856.584 447.468 857.63 445.724C858.676 444.329 859.024 442.933 860.07 441.537C860.768 440.491 861.814 439.793 862.162 438.746C862.511 438.049 863.208 437.351 863.905 436.653C864.603 435.955 865.3 435.955 866.346 435.606C867.043 435.257 868.438 434.909 869.135 434.909C870.53 435.257 871.576 435.955 873.319 435.955C874.365 435.955 875.062 435.606 876.108 434.909C877.154 434.211 878.2 433.513 878.897 432.466C879.595 431.769 880.292 431.769 881.338 431.42C882.035 431.42 882.384 431.071 883.081 431.071C883.778 431.071 884.476 431.071 884.824 431.071C885.87 431.071 886.568 431.071 887.614 430.722C888.311 430.373 889.008 429.675 889.357 428.978C890.054 427.931 891.1 427.233 891.797 426.186C892.495 425.489 893.541 424.791 894.238 424.093C894.587 424.093 894.935 423.744 895.284 423.744C895.632 423.744 896.33 424.442 896.678 424.791C898.073 425.838 899.468 426.535 900.513 427.931C901.211 428.978 902.257 430.373 903.651 431.071C904.697 431.769 906.441 431.42 907.486 431.071C908.881 430.722 910.276 430.024 910.973 428.978C911.322 428.28 912.019 427.931 912.368 427.233C912.716 426.186 913.414 425.14 913.762 424.093C914.111 423.395 913.762 422.349 913.762 421.651C913.762 420.953 913.762 420.255 913.762 419.558C913.414 418.511 913.414 417.115 913.414 415.72C913.414 415.371 913.762 414.673 914.111 414.324C914.459 413.975 914.808 413.975 914.808 413.627C914.808 413.278 914.808 413.278 915.157 412.929C915.505 412.231 916.203 411.882 916.9 411.184C917.597 410.835 917.946 410.487 918.643 410.138C919.341 409.789 919.689 409.091 920.038 408.742C920.386 408.393 921.084 407.695 921.432 407.347C922.13 406.649 922.478 406.649 922.827 405.951C923.524 404.207 925.268 403.16 926.313 401.416C927.708 399.671 928.754 397.578 929.8 395.833C930.497 394.438 931.195 393.74 932.589 393.042C933.287 392.344 933.984 391.996 935.03 391.996C935.378 391.996 936.076 391.996 936.424 391.996C936.773 391.996 936.773 392.344 937.122 392.693C937.47 393.042 937.47 393.042 937.819 393.391C938.516 393.74 939.214 394.438 939.562 395.136C939.911 395.833 940.259 396.531 940.957 397.229C941.305 397.927 942.351 398.624 943.049 399.322C944.443 400.369 945.838 400.718 947.581 401.067C949.324 401.416 951.068 401.067 952.462 401.067C955.251 401.067 957.692 401.067 960.481 400.718C962.573 400.369 964.665 400.369 966.757 400.369C967.803 400.369 968.849 400.718 969.895 400.718C970.94 400.718 971.987 401.067 973.032 401.067C974.427 401.067 976.17 401.067 977.565 400.718C981.4 399.322 986.978 397.229 989.419 401.764C990.465 403.509 990.814 405.602 991.859 407.347C992.557 408.044 993.254 409.091 993.603 410.138C993.951 411.533 994.3 412.929 994.649 414.324C994.997 415.371 995.695 416.767 996.043 417.813C996.392 418.86 996.741 419.906 997.089 420.953C998.135 423.744 999.181 426.186 999.878 428.978C1000.23 430.024 1000.23 431.42 1000.23 432.466C1000.23 433.513 1000.58 434.909 1000.92 435.955C1000.92 436.304 1001.27 436.653 1001.27 437.002C1001.27 437.351 1000.23 438.049 999.878 438.397C997.786 439.793 996.043 441.537 994.649 443.631C993.951 444.677 993.254 445.375 992.557 446.073C991.859 446.771 991.162 447.12 990.465 447.817C989.768 448.515 989.07 448.864 988.722 449.562C988.373 450.26 988.373 450.608 988.373 451.306C988.373 452.004 988.373 452.353 988.373 452.702C988.373 453.051 988.722 453.4 988.373 453.748C988.024 454.097 986.978 454.097 986.63 454.097C985.584 454.446 984.538 454.795 983.492 455.493C982.795 455.842 982.097 456.191 981.4 456.888C980.354 457.586 980.005 458.633 979.308 459.68C978.959 460.377 978.611 461.075 977.914 462.122C977.565 462.82 977.216 463.168 976.868 463.866C976.519 464.913 975.473 465.959 975.822 467.355C976.17 467.006 976.17 466.657 976.17 466.308M950.022 638.658C950.022 638.309 951.068 633.076 951.068 632.727C951.068 632.378 950.719 632.029 950.719 631.68C950.719 630.982 950.72 630.285 950.371 629.587C950.022 628.889 949.674 627.842 949.325 627.145C948.976 626.796 948.976 626.447 948.628 626.098C948.279 625.749 947.93 625.749 947.93 625.4C946.884 624.354 946.536 622.958 946.536 621.562C946.536 619.818 947.233 618.771 947.582 617.027C947.93 615.98 947.93 615.283 948.279 614.236C948.628 613.538 949.325 612.84 949.674 611.794C950.72 610.049 950.719 608.654 950.719 606.909C950.719 606.212 950.371 605.514 950.371 604.467C950.371 603.769 950.371 602.723 950.371 602.025C950.371 601.676 950.022 601.327 950.022 600.978C950.022 600.28 949.674 599.932 949.674 599.583C949.674 598.187 949.325 597.14 949.325 595.745C949.325 594.349 948.976 592.605 948.628 591.209C948.628 590.512 948.628 590.163 948.279 589.814C948.279 589.116 947.93 588.767 947.93 588.069C947.582 585.976 946.884 583.534 946.187 581.092C945.838 579.696 945.49 578.65 945.141 577.254C944.793 575.858 944.095 574.812 944.095 573.416C943.049 567.834 941.306 562.252 939.563 557.019C938.866 554.576 937.819 552.483 937.122 550.041C936.076 546.901 934.682 544.11 933.287 541.319C932.241 538.179 930.498 535.039 928.755 532.248C928.057 531.201 927.709 530.154 927.011 529.457C926.663 528.759 926.314 528.061 926.314 527.363H886.568C880.99 528.41 875.411 529.457 869.484 530.503C868.09 530.852 867.044 530.852 865.649 531.201C864.952 531.201 864.255 531.201 863.557 531.201C863.209 531.201 862.86 531.201 862.511 531.201L862.163 530.503C861.814 530.503 861.465 530.852 861.465 531.201H855.538C854.144 531.201 852.749 531.201 851.006 531.201C849.96 531.201 848.914 531.201 848.217 531.201C847.519 531.201 847.171 530.852 846.474 530.852C845.776 530.852 845.079 530.852 844.382 530.852C843.336 530.852 841.941 530.503 840.895 530.503C838.803 530.503 837.06 530.503 834.968 530.503C830.436 530.503 825.903 531.55 821.371 532.248C818.233 532.945 814.398 532.248 811.26 532.248C809.865 532.248 808.471 532.248 806.728 532.248C806.03 532.248 804.984 531.899 804.287 532.248V532.597M874.365 644.589L869.833 530.852M926.662 527.712C928.754 528.061 984.189 520.037 984.189 520.037M1073.79 595.396C1072.75 594.35 1067.52 593.303 1066.12 592.605C1065.77 592.256 1065.42 591.907 1064.73 591.558C1064.03 591.21 1063.33 591.21 1062.98 590.861C1062.29 590.512 1061.59 589.814 1060.89 589.465C1059.85 589.116 1059.15 588.767 1057.75 588.767C1056.71 588.767 1056.01 588.767 1054.97 588.767C1053.92 588.767 1053.22 589.116 1052.18 589.465C1051.13 589.814 1050.43 589.814 1049.39 589.814C1049.04 589.814 1048.69 589.814 1047.99 589.814C1047.64 589.814 1047.29 589.465 1046.6 589.116C1046.25 589.116 1045.9 589.116 1045.55 588.767C1045.2 588.418 1044.85 588.07 1044.51 588.07C1043.81 587.372 1043.11 587.023 1042.41 585.976C1042.07 585.627 1041.72 585.278 1041.37 584.581C1041.02 583.883 1040.67 583.534 1040.32 582.836C1039.62 581.79 1039.28 580.743 1038.58 579.696C1038.23 578.999 1037.88 578.65 1037.53 577.952C1037.18 577.603 1037.18 576.905 1036.84 576.556C1036.14 575.161 1035.09 574.114 1034.39 572.37C1033.35 569.927 1032.3 567.834 1030.91 565.392C1029.86 563.299 1028.47 561.205 1027.07 559.112C1026.03 557.716 1025.33 555.972 1023.59 555.274C1022.19 554.577 1019.75 554.925 1018.01 554.925C1016.27 554.925 1014.17 554.925 1012.43 554.925C1010.69 554.925 1009.29 553.53 1008.59 552.134C1008.25 551.785 1007.9 551.437 1007.55 551.088C1007.2 550.739 1007.2 550.041 1006.85 549.692C1006.5 548.994 1006.15 548.645 1005.81 548.297C1005.46 547.948 1005.11 547.25 1004.76 546.901C1003.37 545.505 1002.32 544.11 1000.92 542.714C1000.23 541.668 999.53 540.97 998.833 539.923C998.136 538.877 997.438 538.179 996.741 537.481C996.392 537.132 996.392 536.434 996.044 536.086C995.695 535.737 995.346 535.388 994.998 535.039C994.3 534.341 993.603 533.992 992.906 533.294C992.557 532.946 992.557 532.946 991.86 532.597C991.511 532.597 991.511 532.597 991.162 532.597C990.814 532.597 990.814 532.248 990.814 532.248C990.117 532.248 989.071 532.248 988.373 532.248L988.025 531.899C987.676 531.899 987.676 531.899 987.327 531.899C986.979 531.899 986.281 531.55 985.933 531.55C985.236 531.201 984.538 530.852 984.19 530.155C983.144 528.41 982.446 527.015 982.446 524.921C982.446 524.223 982.446 523.177 982.446 522.479C982.446 521.432 982.795 520.735 983.492 520.037C984.887 518.292 986.281 517.943 988.373 517.246C990.117 516.897 992.208 515.85 993.603 514.106C994.998 512.71 996.392 510.966 998.135 510.617C1000.58 509.919 1003.37 509.57 1006.15 509.57C1007.2 509.57 1008.59 509.57 1009.64 509.57C1010.34 509.57 1010.34 509.221 1011.04 509.221C1011.38 509.221 1012.08 509.221 1012.43 509.221C1013.48 508.872 1014.52 508.524 1015.92 508.175C1017.31 507.826 1019.05 507.826 1020.45 507.477C1021.84 507.128 1023.24 507.128 1024.63 507.128C1026.03 507.128 1027.42 506.43 1028.47 506.43C1031.26 506.43 1034.05 505.384 1036.84 505.384C1037.53 505.384 1038.58 505.035 1039.28 505.384C1039.97 505.384 1040.67 506.081 1041.02 506.43C1041.37 506.779 1042.07 507.128 1042.41 507.477C1042.76 507.826 1043.11 507.826 1043.11 508.524C1043.46 509.221 1044.16 509.919 1044.51 510.268C1045.55 511.664 1047.64 511.664 1049.39 511.664C1050.43 511.664 1051.13 510.966 1051.83 510.966C1052.52 510.966 1053.22 510.617 1053.92 510.617C1054.97 510.617 1056.01 510.268 1056.71 510.268C1058.1 510.268 1059.5 509.57 1060.89 509.57C1061.59 509.57 1061.94 509.221 1062.64 509.221C1063.33 509.221 1064.38 509.221 1065.08 509.221C1065.77 509.221 1066.47 508.872 1067.17 508.872C1067.87 508.872 1068.21 508.872 1068.91 508.524C1071.35 508.175 1074.14 508.175 1076.58 508.175C1077.63 508.175 1078.32 508.175 1079.37 508.524C1080.77 509.221 1082.86 509.919 1084.25 510.966C1085.3 512.012 1085.65 514.106 1086.34 515.501C1087.04 517.246 1088.78 518.641 1090.18 519.688C1090.88 520.386 1091.22 521.083 1091.92 521.432C1092.62 522.13 1093.32 522.479 1094.01 522.828C1094.71 523.177 1095.06 523.526 1095.76 523.875C1096.45 524.223 1097.15 524.572 1097.85 524.921C1098.55 525.27 1099.24 525.619 1099.59 525.968C1100.29 526.317 1100.64 526.317 1100.99 527.015C1101.34 527.363 1101.68 527.712 1102.03 528.061C1102.73 528.41 1103.78 530.154 1104.47 530.503M957.692 524.572C957.692 522.479 956.298 517.245 956.298 515.152C956.298 512.71 956.995 510.965 957.692 508.872C957.692 508.174 958.041 507.477 958.39 506.779C958.738 506.081 959.087 505.732 959.784 505.383C960.133 505.034 960.133 504.685 960.482 504.685C960.83 504.337 961.179 504.337 961.179 503.988C961.876 503.639 962.574 502.941 963.271 502.592C966.757 500.499 970.244 498.406 973.382 495.614C974.079 495.266 974.428 494.568 975.125 494.219C975.822 493.87 976.519 493.521 976.868 493.172C978.611 492.126 980.703 491.428 982.446 490.73C984.19 490.032 986.282 488.986 986.979 487.241C987.328 486.543 987.328 485.846 987.328 485.148C987.328 484.101 987.676 483.403 987.676 482.706C989.419 482.357 991.163 481.31 992.906 481.31C994.301 481.31 995.695 481.659 997.09 481.31C998.484 480.961 1000.23 480.263 1001.62 479.217C1003.02 477.821 1004.76 477.123 1006.15 475.728C1007.2 475.03 1008.25 473.984 1008.94 473.286C1009.29 472.937 1009.99 472.588 1010.34 471.89C1011.73 470.844 1012.78 469.797 1014.17 469.099C1015.57 468.401 1016.96 467.006 1018.36 466.308C1019.05 465.959 1020.45 465.261 1021.15 464.564C1022.19 463.517 1022.54 462.121 1023.24 461.075C1023.59 460.377 1024.28 460.028 1024.63 459.33C1024.98 458.633 1025.33 458.284 1025.68 457.935C1026.38 457.586 1027.07 457.237 1027.77 456.888C1028.47 456.539 1029.51 455.841 1030.21 456.19M827.646 483.054C829.041 482.357 830.436 483.054 831.83 483.054C832.528 483.054 833.225 483.403 833.922 483.403C834.619 483.403 834.968 484.101 835.665 484.101C836.363 484.45 836.711 484.45 837.409 484.45C838.106 484.799 838.803 485.148 839.5 485.845C840.895 486.543 842.29 487.59 844.033 487.59C844.73 487.59 845.428 487.59 845.776 487.241C846.473 486.892 846.822 486.543 847.171 486.194C848.565 485.148 849.96 483.752 851.355 482.706C852.749 481.659 854.144 480.612 855.887 480.612C857.63 480.263 859.374 480.612 860.768 480.612C863.557 480.612 866.347 480.961 868.787 480.263C870.182 479.914 871.576 479.566 872.971 479.217C874.017 479.217 875.063 479.217 876.109 479.217C876.806 479.217 877.503 478.868 878.201 478.868C879.247 478.868 879.944 478.868 880.99 478.519C883.082 478.17 885.174 477.821 887.265 477.472C888.66 477.123 890.403 477.123 891.798 476.774C893.192 476.426 894.587 476.774 896.33 476.426C899.468 476.077 902.257 475.728 905.395 475.379C906.79 475.03 908.184 475.03 909.579 475.03C910.276 475.03 910.974 474.681 911.671 474.681C912.368 474.681 913.065 474.681 913.763 474.681C914.46 474.681 914.809 474.332 915.506 474.332C916.203 474.332 916.552 474.332 917.249 474.332C918.992 473.983 920.736 473.635 922.13 473.286C926.314 472.937 930.149 472.239 934.333 471.541C936.076 471.192 938.168 470.843 939.911 470.495C941.655 470.146 943.398 470.146 945.141 469.797C948.628 469.099 951.765 468.75 955.252 468.052C956.646 467.703 958.041 467.355 959.436 467.355C960.83 467.006 962.225 467.006 963.619 466.657C965.363 466.308 967.106 466.308 969.198 466.308C969.547 466.308 969.895 466.308 970.592 466.308C970.941 466.308 971.29 466.657 971.638 466.657C972.336 466.657 973.382 466.657 974.079 466.657C976.171 466.657 977.914 466.308 980.006 465.959C983.492 465.261 987.328 464.563 990.814 463.517C992.906 462.819 995.347 462.47 997.438 461.772C998.136 461.423 998.833 461.424 999.53 461.075C1000.23 460.726 1000.92 460.726 1001.62 460.726C1002.67 460.726 1003.71 460.377 1005.11 460.377C1006.5 460.377 1007.55 460.377 1008.94 460.028C1009.64 460.028 1010.69 460.028 1011.73 460.028C1012.78 460.028 1013.82 459.679 1014.52 459.679C1015.92 459.33 1017.66 458.981 1019.05 458.632C1021.5 458.284 1023.94 457.237 1026.38 456.539C1027.42 456.19 1028.47 456.19 1029.17 455.841C1029.86 455.492 1030.21 455.492 1030.91 455.144C1031.95 455.144 1032.3 455.492 1033.35 455.492C1034.05 455.492 1034.74 455.841 1035.44 455.841C1036.49 455.841 1037.53 455.841 1038.58 455.841C1040.67 455.841 1042.76 455.841 1044.85 455.492C1046.6 455.492 1047.99 455.492 1049.74 455.144C1051.13 454.795 1052.87 455.144 1054.27 454.795C1057.41 454.097 1060.54 454.446 1063.68 453.748C1065.42 453.399 1066.82 453.399 1068.56 453.05C1070.65 452.701 1072.4 452.352 1074.49 452.352C1079.37 451.655 1083.9 450.608 1088.78 449.212C1090.18 448.864 1092.27 448.515 1093.67 448.166C1094.01 448.166 1094.01 447.817 1094.71 447.817C1095.41 447.817 1095.76 447.468 1096.45 447.468C1097.5 447.468 1098.55 446.77 1099.24 446.421C1100.64 446.073 1102.03 446.073 1103.43 446.073C1104.82 446.073 1105.87 445.724 1107.26 445.724C1109.01 445.724 1110.75 445.375 1112.49 445.375C1114.93 445.026 1117.37 444.677 1119.47 444.328C1120.86 444.328 1121.91 444.328 1123.3 443.979C1124.7 443.63 1125.74 443.63 1127.14 443.281C1129.23 443.281 1131.32 442.584 1133.06 441.886C1134.46 441.537 1136.2 441.188 1137.6 440.49C1138.99 439.793 1140.38 439.444 1141.78 438.746C1142.82 438.397 1143.87 438.048 1144.92 437.35C1147.01 436.653 1148.75 436.304 1150.84 435.606C1151.54 435.257 1152.24 435.257 1152.94 435.257C1153.28 435.257 1153.63 434.908 1154.33 434.908C1155.38 434.908 1156.42 434.559 1157.82 434.559C1159.21 434.21 1160.95 433.861 1162.35 433.861C1163.05 433.861 1166.18 433.513 1165.84 435.257M1000.58 437.351C1001.27 437.002 1002.32 437.002 1003.37 437.002C1004.76 437.002 1006.15 437.002 1007.55 437.002C1009.64 437.002 1011.38 436.653 1013.13 436.304C1014.52 435.955 1015.92 435.606 1017.31 435.606C1020.1 435.606 1022.54 435.606 1025.33 434.908C1027.42 434.559 1029.51 434.211 1031.26 432.815C1034.74 430.373 1038.23 427.582 1042.07 425.488C1043.11 424.791 1044.16 424.093 1045.2 423.395C1046.25 422.697 1047.29 421.651 1048.34 420.953C1049.04 420.255 1049.74 419.906 1050.43 419.208C1050.78 418.86 1051.48 418.511 1051.48 417.813C1051.83 417.115 1051.48 415.72 1051.48 415.022C1051.48 412.929 1051.48 411.184 1051.48 409.091C1051.48 408.044 1051.48 406.997 1051.83 405.951C1052.18 404.555 1052.87 403.509 1053.22 402.113C1053.57 401.066 1053.57 400.369 1053.92 399.322C1054.62 397.578 1055.66 396.182 1056.36 394.786C1056.71 394.089 1057.06 393.391 1057.41 392.693C1058.45 391.298 1059.5 390.251 1060.89 389.204C1061.59 388.506 1062.98 388.158 1063.68 387.809C1065.08 387.111 1066.82 386.064 1068.21 385.715C1069.96 385.367 1072.05 385.715 1073.79 385.715C1074.84 385.715 1074.49 385.018 1074.84 384.32C1074.84 383.971 1075.19 383.622 1075.19 383.273C1075.19 382.924 1075.19 382.227 1075.19 381.529C1075.19 380.482 1075.19 379.784 1075.19 378.738C1075.19 377.691 1075.54 376.644 1075.88 375.598C1076.58 372.458 1080.07 370.713 1080.77 367.573C1081.81 364.433 1082.86 362.34 1085.3 359.898C1086.34 359.2 1087.04 358.153 1087.39 357.107C1087.74 356.758 1087.39 356.409 1087.74 356.06C1087.74 355.711 1088.09 355.362 1088.44 355.013C1088.78 354.316 1089.13 353.618 1089.13 352.571C1089.13 351.873 1088.78 350.478 1089.13 349.78C1089.48 350.129 1089.48 351.525 1089.48 351.873M990.116 404.207C990.116 401.764 990.116 399.322 990.465 396.88C991.162 394.089 991.859 391.298 992.905 388.507C993.254 387.46 993.951 386.413 994.3 385.367C994.997 383.971 996.043 382.576 997.089 381.529C999.53 379.087 1001.62 376.296 1004.76 374.202C1007.2 372.458 1009.64 370.714 1012.43 369.318C1013.82 368.62 1014.87 367.922 1015.92 367.225C1016.26 366.876 1016.61 366.527 1016.96 366.178C1017.31 365.829 1018.01 365.48 1018.36 364.783C1019.05 364.085 1019.75 363.038 1020.1 362.34C1020.1 361.991 1020.1 361.643 1020.1 360.945C1020.1 360.596 1020.45 359.898 1020.45 359.549C1020.45 358.503 1020.45 357.456 1020.45 356.409C1020.45 355.711 1020.45 355.363 1020.45 354.665C1020.45 354.316 1020.8 353.618 1020.8 353.269C1021.15 351.874 1021.49 350.827 1021.49 349.432C1021.49 348.734 1021.49 348.385 1021.84 348.036C1022.19 347.687 1022.19 346.989 1022.54 346.292C1022.89 345.594 1023.59 344.547 1023.94 344.198C1024.63 343.5 1026.38 342.105 1026.72 343.5M925.965 292.912L934.681 391.995M1180.48 254.185L1179.08 219.297C1179.08 219.297 1163.74 192.781 1163.74 191.386C1163.74 189.99 1162 162.777 1162 162.777M880.292 298.843L969.546 287.33M764.541 365.48C764.89 365.131 765.238 365.131 765.587 364.782C765.936 364.433 766.284 364.084 766.633 363.736C767.679 363.038 768.376 361.991 769.422 361.293C770.119 360.944 770.468 360.247 771.165 359.898C771.514 359.549 771.863 359.549 772.211 359.549C772.56 359.549 772.909 359.2 773.257 359.2C773.954 359.2 774.652 359.2 775 358.502C775.349 357.804 775 356.758 775 356.06C775 354.316 774.652 352.92 773.955 351.525C773.955 351.176 773.955 350.827 773.955 350.478C773.955 350.129 773.606 349.78 773.606 349.431C773.606 348.733 773.606 348.036 773.606 346.989C773.606 346.64 773.257 346.64 773.257 346.291C773.257 345.942 773.955 345.593 774.303 345.245C774.652 344.896 775.349 344.547 775.698 344.198C776.395 343.5 776.395 343.151 776.395 342.105C776.395 341.058 776.395 340.709 775.698 340.011C775.349 339.662 775 339.662 775 339.314C774.652 338.965 774.652 338.616 774.303 338.267C773.606 337.569 773.257 336.871 772.909 336.174C772.211 335.127 771.165 333.382 772.56 332.685C774.652 330.94 777.441 330.242 779.533 328.149C780.579 327.103 781.973 326.754 782.671 325.707C783.019 325.009 783.717 324.66 784.065 324.311C784.763 323.963 785.111 323.265 785.809 322.916C786.506 322.567 787.203 321.869 787.552 321.171C788.249 320.823 788.598 320.474 789.295 319.776C790.69 318.729 792.084 317.334 793.13 316.287C793.828 315.938 794.176 315.24 794.525 314.543C794.873 313.845 794.525 313.147 794.873 312.449C795.571 309.658 793.479 307.216 792.433 304.774C791.038 301.983 789.295 299.541 787.552 297.098C786.506 296.052 785.46 295.005 784.763 293.958C784.414 293.261 784.065 292.912 783.368 292.563C783.019 292.214 782.322 291.167 782.322 290.818M483.181 466.308L469.933 629.587L402.644 626.796L401.946 636.565M789.644 159.288C793.13 159.288 798.708 159.288 801.498 161.033C804.287 162.428 807.076 163.475 809.517 165.219C811.957 166.964 813.003 170.801 814.746 173.244C815.792 174.639 816.49 175.686 817.535 177.081C818.581 178.826 820.325 179.872 821.719 180.919C826.252 185.106 832.179 185.803 837.408 188.246C839.849 189.292 841.941 189.99 844.73 189.99C848.216 189.99 849.96 194.526 852.052 195.921M1161.65 164.173C1161.65 162.079 1160.26 151.962 1158.86 149.868C1157.82 148.124 1157.12 146.38 1156.07 144.635C1154.68 142.542 1152.59 141.495 1151.19 139.751C1149.45 138.006 1147.71 135.564 1146.66 133.471C1145.61 131.726 1144.92 129.633 1143.87 127.54C1143.52 126.493 1143.17 125.097 1142.48 124.051C1142.13 123.353 1141.08 122.655 1140.73 121.957C1140.04 120.911 1137.59 117.422 1136.2 118.12M1194.77 86.3711C1193.73 88.4644 1194.08 89.1622 1195.12 90.9066C1196.17 92.3022 1197.21 93.3488 1198.61 94.3955C1199.65 95.4422 1201.05 95.7911 1202.44 96.4888C1203.49 97.1866 1204.54 97.8844 1205.23 98.931C1207.32 100.675 1210.11 101.722 1212.55 103.118C1214.65 104.164 1216.04 106.258 1217.44 108.351C1219.18 110.793 1219.53 113.933 1220.22 116.375C1220.92 119.166 1221.62 122.306 1222.66 125.097C1223.01 126.144 1223.36 127.191 1224.06 128.237C1224.76 129.284 1225.45 130.68 1226.5 131.726C1227.89 133.82 1229.64 135.913 1230.68 138.355M1234.17 160.335C1233.12 159.986 1231.03 159.637 1229.64 159.637C1228.24 159.637 1227.2 159.637 1226.15 159.986C1224.06 160.684 1222.66 162.428 1220.92 163.475C1219.18 164.522 1217.09 164.87 1214.99 164.87C1212.55 164.87 1210.11 164.87 1207.67 165.568C1203.49 166.964 1204.54 174.29 1201.4 177.082C1198.26 179.873 1194.42 181.966 1191.98 185.455C1191.29 186.501 1190.94 187.548 1189.89 188.595C1187.8 191.037 1184.31 191.037 1181.18 191.735C1180.13 192.084 1179.08 192.433 1177.69 192.084C1176.29 192.084 1175.6 192.084 1174.2 192.432C1172.11 193.13 1170.72 194.177 1169.67 195.921C1169.32 196.27 1168.97 197.317 1168.62 197.666C1168.28 198.015 1167.58 198.015 1167.23 198.364M1171.06 104.513C1171.06 106.607 1172.81 108.351 1173.85 109.746C1174.55 110.793 1175.25 112.189 1175.95 113.235C1176.29 113.933 1176.64 114.282 1176.99 114.631C1177.34 114.98 1177.34 115.678 1177.69 116.375C1178.39 117.771 1179.08 119.515 1179.43 121.26C1181.18 128.237 1175.6 133.471 1176.29 140.1C1176.64 142.891 1178.04 147.775 1176.64 150.566C1175.25 152.659 1173.16 154.404 1172.11 156.497C1171.41 157.893 1171.06 158.591 1171.06 160.335C1171.06 162.079 1171.06 163.824 1171.06 165.568C1171.06 169.057 1171.06 172.546 1171.76 175.686C1171.76 176.035 1172.11 176.035 1172.46 176.384C1172.46 177.082 1172.46 177.43 1172.46 178.128C1172.81 178.826 1173.5 179.873 1173.85 180.57C1174.55 181.966 1174.55 183.361 1175.25 184.757C1175.95 186.153 1175.95 187.548 1176.64 189.293C1177.34 190.688 1176.99 190.688 1178.04 192.084M1158.86 273.374C1159.91 272.676 1160.61 271.281 1161.65 270.583C1162.7 269.885 1163.74 269.536 1164.44 268.49C1164.79 267.792 1164.79 267.792 1165.14 266.745C1165.14 266.396 1165.49 265.699 1165.49 265.35C1165.84 263.954 1165.49 262.908 1166.18 261.512C1168.62 256.279 1166.18 250.348 1161.65 247.557C1160.95 247.208 1160.61 246.859 1159.91 246.51C1159.56 246.51 1158.86 246.51 1158.51 246.161C1157.47 245.812 1156.42 244.765 1155.38 244.068C1154.33 243.021 1152.94 242.323 1151.54 241.277C1150.49 240.579 1149.1 240.23 1148.05 239.532C1146.66 238.834 1145.61 238.137 1144.57 237.439C1143.52 236.741 1142.13 236.741 1141.08 235.694C1138.99 233.95 1136.55 232.903 1135.15 230.81C1133.76 228.717 1132.02 226.274 1128.88 227.67C1126.79 228.717 1125.39 232.554 1124.69 234.648C1124 236.741 1122.95 239.183 1121.21 240.928C1120.86 241.277 1120.16 241.974 1119.81 242.323C1119.46 242.672 1118.77 242.672 1118.42 243.021C1117.37 243.37 1116.68 244.417 1115.63 244.765C1115.28 244.765 1114.58 244.765 1114.24 244.765C1113.89 245.114 1113.89 245.463 1113.54 245.463C1112.84 245.812 1112.49 245.812 1111.79 246.161C1110.4 246.859 1109.01 247.905 1107.61 248.254C1106.22 248.603 1105.17 248.952 1103.78 249.301C1103.43 249.301 1102.73 249.999 1102.38 249.999C1101.68 250.348 1100.99 250.348 1100.29 250.348C1099.24 250.348 1098.89 251.045 1098.2 251.045C1097.5 251.045 1096.8 251.045 1096.11 251.394C1094.71 251.743 1092.97 251.743 1091.57 252.092C1090.53 252.441 1089.48 252.79 1088.44 252.79C1087.39 252.79 1087.39 253.139 1086.69 253.139C1085.99 253.139 1085.3 253.139 1084.6 253.139C1083.9 253.139 1083.55 253.836 1082.86 253.836C1082.51 254.185 1081.81 253.836 1081.46 253.836C1081.11 254.185 1081.11 254.534 1080.76 254.534C1080.07 254.883 1079.02 254.883 1078.32 255.232C1076.58 255.93 1074.84 256.279 1073.09 256.976C1070.65 258.023 1068.56 259.419 1065.77 259.419C1064.73 259.419 1062.64 259.768 1061.24 259.419C1060.19 259.07 1059.15 257.674 1058.45 257.325C1057.06 256.628 1056.36 255.581 1054.96 254.883C1053.57 254.534 1052.52 253.836 1051.13 253.488C1048.69 252.441 1046.25 251.394 1044.16 249.999C1043.11 248.952 1042.06 248.254 1040.67 247.905C1038.58 247.208 1038.58 247.208 1037.88 245.463C1037.18 245.812 1037.18 248.254 1035.09 249.65C1034.74 249.999 1034.39 250.348 1034.05 250.697C1032.65 251.743 1032.65 252.79 1031.95 254.185C1029.86 258.721 1027.07 262.559 1025.68 267.443C1025.33 269.536 1025.68 272.676 1025.68 275.119C1025.68 277.212 1026.03 280.003 1026.72 282.096C1027.77 285.934 1029.16 289.423 1030.56 292.912C1031.61 295.005 1032.3 297.447 1033 299.541C1033.7 301.634 1033.7 303.378 1034.05 305.123C1034.39 306.867 1034.05 308.263 1035.09 309.658C1035.79 311.054 1037.18 312.449 1038.23 313.147C1039.62 314.194 1041.72 314.543 1043.46 314.892C1045.2 315.24 1047.29 315.24 1049.39 315.24C1054.27 315.24 1058.45 313.147 1063.33 313.147C1064.38 313.147 1065.42 313.496 1066.12 313.147C1066.82 313.147 1066.82 312.449 1067.52 312.449C1068.56 312.1 1069.96 312.449 1071 312.1C1072.05 311.752 1073.09 311.403 1074.14 311.054C1078.32 310.007 1082.51 308.96 1086.34 307.216C1087.74 306.867 1088.78 306.518 1090.18 305.821C1091.22 305.123 1092.62 304.425 1094.01 303.727C1095.41 303.378 1096.45 302.681 1097.5 301.983C1098.2 301.634 1098.89 301.285 1099.59 300.936C1100.64 300.587 1100.99 299.889 1102.03 299.541C1107.26 297.796 1113.54 296.749 1118.77 296.052C1122.6 295.354 1126.09 294.656 1129.92 293.261C1130.97 292.912 1132.36 292.563 1133.41 292.214C1133.76 292.214 1134.46 291.865 1135.15 291.865C1135.85 291.516 1136.55 291.516 1137.25 291.516C1138.29 291.167 1139.34 290.47 1140.38 290.121C1141.43 289.772 1142.82 289.423 1143.87 289.074C1145.96 288.027 1148.05 286.981 1149.1 284.887C1150.49 282.096 1151.54 280.003 1153.63 277.91C1154.68 276.863 1155.38 276.165 1156.42 275.119C1156.77 274.77 1157.12 274.421 1157.47 274.072C1157.82 273.723 1158.51 273.723 1158.86 273.374ZM1158.86 273.374C1158.16 274.77 1159.56 276.165 1160.26 277.212C1161.3 278.607 1162.7 280.003 1163.74 281.398C1164.09 282.096 1164.79 282.445 1165.14 283.143C1165.49 283.841 1165.84 284.538 1166.18 284.887C1167.23 285.934 1167.93 287.33 1168.97 288.376C1170.02 289.772 1170.72 291.167 1172.11 292.214C1172.46 292.563 1172.81 292.912 1173.51 293.261C1174.2 293.609 1174.55 293.958 1175.25 294.307C1176.99 295.354 1178.39 296.749 1179.78 297.796C1180.13 298.145 1180.48 298.145 1180.48 298.494C1180.83 298.843 1180.83 299.192 1181.18 299.541L1181.52 299.889C1181.52 300.238 1181.52 300.238 1181.87 300.587C1181.87 300.936 1182.22 301.634 1182.57 301.634C1182.57 301.634 1182.57 301.634 1182.57 301.285M1156.42 242.672C1157.12 241.974 1157.82 241.625 1158.86 241.277C1161.3 240.579 1163.74 240.928 1166.18 240.928C1167.23 240.928 1168.62 240.928 1169.67 240.928C1170.72 240.928 1171.76 240.23 1172.46 239.881C1174.2 238.834 1176.29 237.788 1178.74 238.485V238.834M1146.31 301.983C1146.66 301.634 1146.31 300.587 1146.31 299.889C1146.31 299.192 1146.31 298.145 1146.31 297.447C1146.31 296.749 1146.31 295.703 1146.31 295.005C1146.31 294.307 1146.31 293.958 1146.31 293.261C1146.31 292.912 1146.31 292.912 1146.31 292.563C1146.31 292.214 1146.31 292.214 1146.31 291.865C1146.31 291.167 1146.31 290.818 1146.31 290.121C1146.31 289.772 1146.31 289.772 1145.96 289.423C1145.96 289.074 1145.96 289.074 1145.96 288.725C1145.96 288.376 1145.61 287.33 1146.31 287.33M1146.66 287.678C1146.66 288.376 1147.01 288.376 1147.36 289.074C1147.71 289.423 1148.05 289.772 1148.4 290.121C1148.75 290.47 1149.1 291.167 1149.45 291.516C1150.49 292.912 1151.19 294.656 1151.54 296.401C1151.54 297.447 1151.89 298.145 1151.89 299.192C1152.24 300.587 1152.59 301.983 1153.28 303.029C1154.33 305.123 1155.72 306.867 1156.77 308.612C1157.47 309.658 1157.47 310.705 1158.16 311.752C1158.51 312.449 1159.21 312.798 1159.91 313.496C1161.3 314.543 1162.7 315.589 1164.09 316.636C1164.44 316.985 1165.14 316.985 1165.49 317.334C1165.84 317.334 1166.18 317.683 1166.53 318.031C1167.23 318.38 1168.28 318.729 1168.97 319.078C1169.67 319.427 1170.02 319.776 1170.72 319.776C1171.06 320.125 1171.41 320.474 1172.11 320.823C1173.16 321.52 1173.85 322.218 1174.55 322.916C1174.9 323.265 1175.25 323.614 1175.6 323.614C1175.95 323.614 1177.34 323.963 1177.34 323.265M1026.72 342.454C1026.38 339.663 1029.16 336.872 1031.26 335.127C1031.95 334.429 1033 333.732 1033.7 332.685C1035.09 331.289 1034.74 329.894 1034.74 328.149C1034.74 325.009 1034.74 321.87 1034.74 318.381C1034.74 316.985 1034.74 315.241 1034.74 313.845C1034.74 311.403 1034.74 310.007 1036.14 307.914M1027.42 340.36C1029.16 340.36 1029.86 340.011 1031.26 339.314C1033 338.616 1033.35 339.314 1034.05 340.709C1035.09 342.802 1035.44 345.245 1037.18 346.64C1039.62 349.082 1041.02 346.64 1042.76 344.198C1043.46 343.5 1043.81 341.756 1044.51 341.058C1045.55 340.36 1047.64 340.709 1048.69 340.709C1049.39 340.709 1050.43 340.36 1051.13 340.709C1051.83 340.709 1051.83 341.407 1052.52 341.407C1053.92 341.756 1055.66 341.407 1057.06 341.407C1058.8 341.407 1059.85 341.058 1061.24 340.011C1062.98 338.965 1063.68 338.616 1065.77 338.616C1068.91 338.616 1071 339.314 1074.14 339.314C1074.84 339.314 1075.54 339.314 1076.23 339.314C1077.28 339.314 1077.28 339.662 1077.98 340.011C1079.37 340.36 1080.42 340.709 1081.81 340.709C1083.55 340.709 1084.95 340.709 1086.34 341.407C1088.09 342.105 1088.09 342.802 1088.09 344.896C1088.09 345.594 1088.09 346.64 1088.09 347.687C1088.09 348.385 1087.39 348.733 1087.39 349.78C1087.39 350.478 1087.39 351.176 1087.04 351.873C1086.69 352.92 1086.69 353.618 1086.69 354.665M1068.56 312.449C1071 313.147 1073.79 315.938 1075.19 318.031C1075.88 319.078 1076.58 320.474 1077.63 321.869C1078.32 322.916 1079.37 323.265 1079.37 325.009C1079.72 326.405 1079.37 327.8 1079.02 328.847C1078.32 330.243 1077.63 330.94 1077.63 332.336C1077.63 333.034 1077.63 334.08 1077.63 334.778C1077.63 335.476 1077.98 335.825 1078.32 336.174C1078.67 337.569 1078.32 338.965 1078.32 340.36V340.011M1080.42 339.662C1079.72 342.104 1082.51 340.709 1083.55 340.011C1084.6 339.313 1085.65 338.616 1086.69 337.569C1088.44 335.824 1089.83 334.429 1091.92 333.033C1092.97 332.336 1094.01 331.987 1095.06 331.289C1096.8 330.242 1097.15 329.544 1099.24 329.544C1100.99 329.544 1102.03 328.847 1103.78 328.847C1105.52 328.847 1107.26 328.847 1108.66 328.847C1111.79 328.847 1114.24 327.451 1117.72 327.451C1120.51 327.451 1122.95 330.242 1125.39 331.289C1128.18 332.684 1130.27 334.778 1133.06 335.824C1134.46 336.173 1135.15 337.22 1136.2 338.267C1137.59 339.662 1137.25 341.058 1137.94 342.802C1138.29 344.198 1140.04 345.593 1141.08 346.64C1142.48 348.035 1142.82 349.082 1143.87 350.478C1144.92 351.524 1145.96 352.222 1146.31 353.618C1147.01 355.013 1147.36 356.409 1147.71 357.804C1148.05 357.804 1148.05 357.804 1148.4 357.804" stroke="#4F88FC" stroke-width="0.75" stroke-miterlimit="10" stroke-linejoin="bevel"/>
</g>
<defs>
<clipPath id="clip0_5455_2103">
<rect width="1287.72" height="828.236" fill="white" transform="translate(0.137817)"/>
</clipPath>
</defs>
</svg>
