<svg width="36" height="36" viewBox="0 0 36 36" fill="none" xmlns="http://www.w3.org/2000/svg">
<path d="M19.1249 11.249V17.362L24.2042 20.4094C24.4601 20.563 24.6444 20.812 24.7167 21.1016C24.7889 21.3912 24.7432 21.6976 24.5896 21.9534C24.4359 22.2093 24.1869 22.3936 23.8973 22.4659C23.6078 22.5381 23.3013 22.4924 23.0455 22.3387L17.4205 18.9637C17.254 18.8637 17.1163 18.7223 17.0206 18.5532C16.925 18.3842 16.8748 18.1933 16.8749 17.999V11.249C16.8749 10.9507 16.9934 10.6645 17.2044 10.4535C17.4153 10.2426 17.7015 10.124 17.9999 10.124C18.2982 10.124 18.5844 10.2426 18.7954 10.4535C19.0063 10.6645 19.1249 10.9507 19.1249 11.249ZM31.4999 7.87404C31.2015 7.87404 30.9153 7.99257 30.7044 8.20355C30.4934 8.41452 30.3749 8.70067 30.3749 8.99904V11.5303C29.4819 10.4953 28.5706 9.49826 27.5455 8.46045C25.6693 6.5841 23.2819 5.30223 20.6813 4.77502C18.0808 4.24782 15.3826 4.49864 12.9238 5.49617C10.4651 6.49369 8.35478 8.19367 6.85665 10.3837C5.35852 12.5737 4.53898 15.1567 4.50045 17.8098C4.46191 20.4629 5.20609 23.0686 6.63998 25.3012C8.07388 27.5338 10.1339 29.2944 12.5627 30.3629C14.9914 31.4314 17.6812 31.7605 20.296 31.309C22.9107 30.8576 25.3344 29.6456 27.2642 27.8245C27.3717 27.7229 27.4581 27.6012 27.5186 27.4662C27.579 27.3313 27.6122 27.1857 27.6164 27.0379C27.6206 26.8901 27.5956 26.7429 27.5429 26.6047C27.4902 26.4665 27.4108 26.3401 27.3092 26.2326C27.2077 26.1252 27.0859 26.0387 26.951 25.9783C26.816 25.9179 26.6704 25.8846 26.5226 25.8804C26.3748 25.8763 26.2276 25.9012 26.0894 25.954C25.9513 26.0067 25.8248 26.0861 25.7174 26.1876C24.1087 27.7037 22.089 28.7122 19.9106 29.0873C17.7321 29.4624 15.4915 29.1874 13.4684 28.2966C11.4453 27.4059 9.72945 25.9389 8.53512 24.0788C7.34078 22.2188 6.72088 20.0481 6.75284 17.8378C6.78479 15.6275 7.46717 13.4757 8.71478 11.6509C9.96238 9.82615 11.7199 8.40936 13.7679 7.57748C15.8159 6.7456 18.0636 6.53548 20.2302 6.97337C22.3969 7.41126 24.3866 8.47775 25.9508 10.0397C27.0955 11.1984 28.0981 12.315 29.1092 13.499H25.8749C25.5765 13.499 25.2903 13.6176 25.0794 13.8285C24.8684 14.0395 24.7499 14.3257 24.7499 14.624C24.7499 14.9224 24.8684 15.2086 25.0794 15.4195C25.2903 15.6305 25.5765 15.749 25.8749 15.749H31.4999C31.7982 15.749 32.0844 15.6305 32.2954 15.4195C32.5063 15.2086 32.6249 14.9224 32.6249 14.624V8.99904C32.6249 8.70067 32.5063 8.41452 32.2954 8.20355C32.0844 7.99257 31.7982 7.87404 31.4999 7.87404Z" fill="white"/>
</svg>
