<svg width="1878" height="850" viewBox="0 0 1878 850" fill="none" xmlns="http://www.w3.org/2000/svg">
<g style="mix-blend-mode:difference" opacity="0.3">
<path d="M960.263 0C876.789 0.0134277 799.714 44.5824 758.261 116.808L556.873 464.531H779.609L811.163 410.048L813.529 405.966L925.493 212.778C925.711 212.387 925.934 211.999 926.163 211.616L926.925 210.306L926.967 210.236L927.106 210.276C934.438 199.107 946.906 192.355 960.296 192.3H1189.57H1271.39H1494.13L1605.5 0.000192084H1382.77H1048.66L960.263 0ZM901.79 464.523L556.86 464.549L445.487 656.848H779.6L779.604 656.84L1013.15 656.831L1124.52 464.536H901.785L901.79 464.523Z" fill="url(#paint0_linear_5455_2097)"/>
<path d="M1696.17 192.26V192.299H1271.39L890.968 849.142H1113.7H1447.82L1537.76 693.853L1447.82 849.134H1536.81L1536.81 849.125C1578.4 849.004 1619.19 837.779 1654.95 816.616C1690.72 795.453 1720.14 765.125 1740.16 728.787L1740.24 728.854L1766.3 683.868L1877.64 491.608H1877.73V491.574L1815.75 384.558L1704.4 192.302H1700.72V192.263L1696.17 192.26ZM1382.78 384.564L1593 384.597L1654.96 491.565L1699.51 491.573H1654.96L1570.22 637.881C1566.66 643.653 1561.69 648.423 1555.77 651.74C1549.84 655.057 1543.17 656.81 1536.37 656.833H1536.29C1536.29 656.833 1536.29 656.833 1536.29 656.833L1225.06 656.85L1382.78 384.564Z" fill="url(#paint1_linear_5455_2097)"/>
<path d="M111.372 656.845L445.497 656.828L334.114 849.144H0L111.372 656.845Z" fill="#9060F2"/>
</g>
<defs>
<linearGradient id="paint0_linear_5455_2097" x1="407.449" y1="40.1448" x2="1106.45" y2="906.645" gradientUnits="userSpaceOnUse">
<stop stop-color="#105DFB"/>
<stop offset="0.779981" stop-color="#2A2A9C"/>
</linearGradient>
<linearGradient id="paint1_linear_5455_2097" x1="1384.35" y1="-28.3559" x2="1384.35" y2="849.142" gradientUnits="userSpaceOnUse">
<stop stop-color="#105DFB"/>
<stop offset="0.806617" stop-color="#105DFB" stop-opacity="0"/>
</linearGradient>
</defs>
</svg>
