<svg width="36" height="36" viewBox="0 0 36 36" fill="none" xmlns="http://www.w3.org/2000/svg">
<g clip-path="url(#clip0_5455_2284)">
<path d="M28.6875 15.75C30.8621 15.75 32.625 13.9871 32.625 11.8125C32.625 9.63788 30.8621 7.875 28.6875 7.875C26.5129 7.875 24.75 9.63788 24.75 11.8125C24.75 13.9871 26.5129 15.75 28.6875 15.75Z" stroke="white" stroke-width="2" stroke-linecap="round" stroke-linejoin="round"/>
<path d="M6.75 29.25H2.25C1.95163 29.25 1.66548 29.1315 1.4545 28.9205C1.24353 28.7095 1.125 28.4234 1.125 28.125V22.5C1.125 22.2016 1.24353 21.9155 1.4545 21.7045C1.66548 21.4935 1.95163 21.375 2.25 21.375H6.75" stroke="white" stroke-width="2" stroke-linecap="round" stroke-linejoin="round"/>
<path d="M15.75 22.5H20.25L29.6719 20.333C30.0183 20.2381 30.3819 20.2243 30.7345 20.2928C31.0871 20.3612 31.4191 20.5101 31.7048 20.7277C31.9905 20.9454 32.2221 21.226 32.3817 21.5478C32.5413 21.8696 32.6246 22.2238 32.625 22.583C32.6252 23.0166 32.5045 23.4418 32.2764 23.8107C32.0484 24.1795 31.7221 24.4776 31.3341 24.6713L25.875 27L16.875 29.25H6.75V21.375L10.2656 17.8594C10.5799 17.5462 10.9527 17.2981 11.3629 17.1292C11.7731 16.9603 12.2126 16.8739 12.6562 16.875H19.6875C20.4334 16.875 21.1488 17.1713 21.6762 17.6988C22.2037 18.2262 22.5 18.9416 22.5 19.6875C22.5 20.4334 22.2037 21.1488 21.6762 21.6762C21.1488 22.2037 20.4334 22.5 19.6875 22.5H15.75Z" stroke="white" stroke-width="2" stroke-linecap="round" stroke-linejoin="round"/>
<path d="M24.75 11.9938C23.9858 12.3552 23.1256 12.4611 22.2965 12.2958C21.4675 12.1305 20.7136 11.7027 20.1465 11.0758C19.5794 10.4489 19.2291 9.6561 19.1475 8.81469C19.0658 7.97328 19.2571 7.12792 19.6931 6.40365C20.1291 5.67938 20.7866 5.11465 21.5683 4.793C22.3501 4.47134 23.2147 4.40983 24.0341 4.61756C24.8536 4.82529 25.5844 5.29124 26.1185 5.94649C26.6526 6.60174 26.9617 7.41149 27 8.25599" stroke="white" stroke-width="2" stroke-linecap="round" stroke-linejoin="round"/>
</g>
<defs>
<clipPath id="clip0_5455_2284">
<rect width="36" height="36" fill="white"/>
</clipPath>
</defs>
</svg>
