<svg width="64" height="64" viewBox="0 0 64 64" fill="none" xmlns="http://www.w3.org/2000/svg">
<g clip-path="url(#clip0_5546_218)">
<path d="M46.0002 19.355H36.0002L24.5852 30.4275C24.373 30.6396 24.2112 30.8967 24.1119 31.1798C24.0125 31.4629 23.9781 31.7647 24.0113 32.0629C24.0444 32.3611 24.1442 32.648 24.3033 32.9024C24.4623 33.1568 24.6766 33.3721 24.9302 33.5325C29.3077 36.33 35.2502 36.1375 40.0002 31.355L50.0002 39.355L54.0002 35.355" stroke="white" stroke-width="2" stroke-linecap="round" stroke-linejoin="round"/>
<path d="M50 39.355L40 49.355L24 45.355L10 35.355" stroke="white" stroke-width="2" stroke-linecap="round" stroke-linejoin="round"/>
<path d="M18 19.355L32 15.355L46 19.355" stroke="white" stroke-width="2" stroke-linecap="round" stroke-linejoin="round"/>
<path d="M9.10482 17.1448L2.89482 29.5648C2.77712 29.7998 2.7069 30.0558 2.68818 30.318C2.66946 30.5802 2.70262 30.8435 2.78574 31.0928C2.86886 31.3422 3.00033 31.5727 3.17262 31.7713C3.34491 31.9698 3.55464 32.1324 3.78982 32.2498L9.99982 35.3548L17.9998 19.3548L11.7898 16.2498C11.5548 16.1321 11.2989 16.0619 11.0367 16.0432C10.7745 16.0244 10.5112 16.0576 10.2618 16.1407C10.0124 16.2238 9.78189 16.3553 9.58336 16.5276C9.38484 16.6999 9.22223 16.9096 9.10482 17.1448Z" stroke="white" stroke-width="2" stroke-linecap="round" stroke-linejoin="round"/>
<path d="M52.21 16.2498L46 19.3548L54 35.3548L60.21 32.2498C60.4452 32.1324 60.6549 31.9698 60.8272 31.7713C60.9995 31.5727 61.131 31.3422 61.2141 31.0928C61.2972 30.8435 61.3304 30.5802 61.3116 30.318C61.2929 30.0558 61.2227 29.7998 61.105 29.5648L54.895 17.1448C54.7776 16.9096 54.615 16.6999 54.4165 16.5276C54.2179 16.3553 53.9874 16.2238 53.738 16.1407C53.4887 16.0576 53.2253 16.0244 52.9632 16.0432C52.701 16.0619 52.445 16.1321 52.21 16.2498Z" stroke="white" stroke-width="2" stroke-linecap="round" stroke-linejoin="round"/>
</g>
<defs>
<clipPath id="clip0_5546_218">
<rect width="64" height="64" fill="white"/>
</clipPath>
</defs>
</svg>
