<svg width="36" height="36" viewBox="0 0 36 36" fill="none" xmlns="http://www.w3.org/2000/svg">
<path fill-rule="evenodd" clip-rule="evenodd" d="M18 5.625C11.1655 5.625 5.625 11.1655 5.625 18C5.625 24.8345 11.1655 30.375 18 30.375C24.8345 30.375 30.375 24.8345 30.375 18C30.375 11.1655 24.8345 5.625 18 5.625ZM3.375 18C3.375 9.92284 9.92284 3.375 18 3.375C26.0772 3.375 32.625 9.92284 32.625 18C32.625 26.0772 26.0772 32.625 18 32.625C9.92284 32.625 3.375 26.0772 3.375 18ZM18 9C18.6213 9 19.125 9.50368 19.125 10.125V16.875H25.875C26.4963 16.875 27 17.3787 27 18C27 18.6213 26.4963 19.125 25.875 19.125H18C17.3787 19.125 16.875 18.6213 16.875 18V10.125C16.875 9.50368 17.3787 9 18 9Z" fill="white"/>
</svg>
