<svg width="36" height="36" viewBox="0 0 36 36" fill="none" xmlns="http://www.w3.org/2000/svg">
<path d="M32.4337 6.94137C32.0159 6.52339 31.5197 6.19183 30.9737 5.96562C30.4277 5.73941 29.8424 5.62298 29.2514 5.62298C28.6604 5.62298 28.0751 5.73941 27.5291 5.96562C26.983 6.19183 26.4869 6.52339 26.069 6.94137C25.7858 7.22443 25.5418 7.54415 25.3434 7.89199L21.375 6.80918C21.3872 5.9139 21.1322 5.03532 20.6423 4.28582C20.1525 3.53632 19.4503 2.94997 18.6254 2.60177C17.8005 2.25358 16.8905 2.15938 16.0118 2.33121C15.1331 2.50304 14.3256 2.93309 13.6926 3.56637C13.0168 4.2438 12.574 5.1187 12.4284 6.06446C12.2828 7.01022 12.4419 7.97779 12.8826 8.82715L8.10983 13.1232C7.24388 12.5509 6.20693 12.295 5.17413 12.3988C4.14134 12.5025 3.17601 12.9596 2.44123 13.6928C1.61966 14.5081 1.14386 15.6087 1.11271 16.7658C1.08157 17.9228 1.49748 19.0474 2.27401 19.9058C3.05053 20.7641 4.12795 21.2903 5.28235 21.3748C6.43674 21.4594 7.57933 21.0958 8.47264 20.3598L18.3164 27.5823C18.0014 28.3712 17.916 29.2331 18.0703 30.0684C18.2246 30.9038 18.6121 31.6784 19.1882 32.3027C19.7642 32.927 20.5052 33.3755 21.3254 33.5964C22.1456 33.8173 23.0116 33.8015 23.8233 33.5508C24.6349 33.3002 25.359 32.825 25.9119 32.18C26.4648 31.5351 26.8238 30.7469 26.9475 29.9065C27.0712 29.0661 26.9545 28.2079 26.6109 27.431C26.2674 26.6542 25.7109 25.9904 25.0059 25.5165L28.8576 14.6054C28.987 14.6167 29.1164 14.6223 29.2458 14.6223C30.1356 14.6222 31.0054 14.3582 31.7453 13.8638C32.4851 13.3694 33.0618 12.6668 33.4024 11.8447C33.743 11.0227 33.8322 10.1181 33.6588 9.24531C33.4854 8.37254 33.0571 7.57078 32.4281 6.94137H32.4337ZM15.2775 5.15683C15.5923 4.84242 15.9932 4.62837 16.4296 4.54176C16.8659 4.45515 17.3182 4.49985 17.7292 4.67022C18.1402 4.84059 18.4914 5.12898 18.7386 5.49894C18.9857 5.86889 19.1176 6.30381 19.1176 6.74871C19.1176 7.19361 18.9857 7.62853 18.7386 7.99848C18.4914 8.36844 18.1402 8.65683 17.7292 8.8272C17.3182 8.99757 16.8659 9.04227 16.4296 8.95566C15.9932 8.86904 15.5923 8.655 15.2775 8.34058C15.0687 8.13125 14.9031 7.88281 14.7904 7.60946C14.6776 7.33612 14.6199 7.04323 14.6204 6.74754C14.6209 6.45186 14.6797 6.15918 14.7934 5.88623C14.9071 5.61328 15.0735 5.36543 15.2831 5.15683H15.2775ZM4.02748 18.467C3.81829 18.258 3.65233 18.0099 3.5391 17.7367C3.42587 17.4636 3.36759 17.1708 3.36759 16.8751C3.36759 16.5794 3.42587 16.2866 3.5391 16.0135C3.65233 15.7404 3.81829 15.4922 4.02748 15.2832C4.34225 14.9688 4.74317 14.7548 5.17956 14.6682C5.61595 14.5816 6.06822 14.6263 6.47921 14.7966C6.89019 14.967 7.24145 15.2554 7.48857 15.6253C7.73569 15.9953 7.86759 16.4302 7.86759 16.8751C7.86759 17.32 7.73569 17.7549 7.48857 18.1249C7.24145 18.4948 6.89019 18.7832 6.47921 18.9536C6.06822 19.124 5.61595 19.1687 5.17956 19.0821C4.74317 18.9954 4.34225 18.7814 4.02748 18.467ZM24.0876 30.842C23.6656 31.264 23.0933 31.5011 22.4965 31.5011C21.8997 31.5011 21.3273 31.264 20.9053 30.842C20.4833 30.42 20.2462 29.8476 20.2462 29.2508C20.2462 28.654 20.4833 28.0817 20.9053 27.6596C21.1143 27.4507 21.3623 27.2849 21.6353 27.1719C21.9083 27.0588 22.201 27.0006 22.4965 27.0006C22.792 27.0006 23.0846 27.0588 23.3576 27.1719C23.6306 27.2849 23.8787 27.4507 24.0876 27.6596C24.2966 27.8686 24.4623 28.1167 24.5754 28.3897C24.6885 28.6627 24.7467 28.9553 24.7467 29.2508C24.7467 29.5463 24.6885 29.8389 24.5754 30.112C24.4623 30.385 24.2966 30.633 24.0876 30.842ZM22.8853 24.7698C21.7187 24.6682 20.5584 25.0254 19.6509 25.7654L9.80717 18.5429C10.0457 17.9411 10.1523 17.2952 10.1198 16.6486C10.0873 16.0021 9.91645 15.3701 9.61874 14.7953L14.393 10.4992C14.9066 10.8396 15.4846 11.0709 16.0913 11.1788C16.698 11.2866 17.3204 11.2687 17.9198 11.1262C18.5193 10.9837 19.0831 10.7196 19.5764 10.3502C20.0696 9.98088 20.4817 9.51417 20.7872 8.97902L24.75 10.0632C24.7393 10.8113 24.9152 11.5502 25.2619 12.2132C25.6086 12.8761 26.1151 13.4422 26.7356 13.8601L22.8853 24.7698ZM30.839 11.7142C30.6333 11.9365 30.3848 12.115 30.1085 12.239C29.8321 12.363 29.5335 12.4299 29.2307 12.4357C28.9278 12.4415 28.6269 12.3861 28.346 12.2728C28.0651 12.1595 27.8099 11.9907 27.5959 11.7764C27.3818 11.5621 27.2131 11.3068 27.1001 11.0258C26.9871 10.7448 26.9319 10.4438 26.938 10.141C26.9441 9.83811 27.0112 9.53962 27.1355 9.26335C27.2597 8.98709 27.4384 8.73876 27.6609 8.53324C28.0829 8.11124 28.6553 7.87416 29.2521 7.87416C29.8489 7.87416 30.4213 8.11124 30.8433 8.53324C31.2653 8.95525 31.5024 9.52761 31.5024 10.1244C31.5024 10.7212 31.2653 11.2936 30.8433 11.7156L30.839 11.7142Z" fill="white"/>
</svg>
