<svg width="25" height="24" viewBox="0 0 25 24" fill="none" xmlns="http://www.w3.org/2000/svg">
<path d="M23 17.2501H22.25V5.42824L23.1566 5.23324C23.255 5.21479 23.3487 5.17682 23.4321 5.12159C23.5156 5.06635 23.5872 4.99496 23.6427 4.91162C23.6981 4.82828 23.7364 4.73468 23.7551 4.63634C23.7738 4.53799 23.7726 4.4369 23.7517 4.33901C23.7307 4.24112 23.6904 4.14842 23.633 4.06638C23.5756 3.98433 23.5024 3.9146 23.4177 3.86128C23.333 3.80797 23.2384 3.77217 23.1396 3.75597C23.0408 3.73978 22.9398 3.74352 22.8425 3.76699L1.8425 8.26699C1.66159 8.30603 1.50149 8.41058 1.39302 8.56054C1.28455 8.7105 1.23535 8.89527 1.25489 9.07932C1.27444 9.26336 1.36134 9.43368 1.49889 9.55751C1.63644 9.68134 1.81492 9.74994 2 9.75012C2.05326 9.75002 2.10636 9.74437 2.15844 9.73324L2.75 9.60668V17.2501H2C1.80109 17.2501 1.61032 17.3291 1.46967 17.4698C1.32902 17.6104 1.25 17.8012 1.25 18.0001C1.25 18.199 1.32902 18.3898 1.46967 18.5304C1.61032 18.6711 1.80109 18.7501 2 18.7501H23C23.1989 18.7501 23.3897 18.6711 23.5303 18.5304C23.671 18.3898 23.75 18.199 23.75 18.0001C23.75 17.8012 23.671 17.6104 23.5303 17.4698C23.3897 17.3291 23.1989 17.2501 23 17.2501ZM4.25 9.28137L20.75 5.7498V17.2501H18.5V12.0001C18.5 11.8012 18.421 11.6104 18.2803 11.4698C18.1397 11.3291 17.9489 11.2501 17.75 11.2501H7.25C7.05109 11.2501 6.86032 11.3291 6.71967 11.4698C6.57902 11.6104 6.5 11.8012 6.5 12.0001V17.2501H4.25V9.28137ZM17 14.2501H8V12.7501H17V14.2501ZM8 15.7501H17V17.2501H8V15.7501Z" fill="#4F88FC"/>
</svg>
