<svg width="25" height="24" viewBox="0 0 25 24" fill="none" xmlns="http://www.w3.org/2000/svg">
<path d="M23.6956 10.9688L22.3831 7.6875C22.2718 7.40988 22.0796 7.17209 21.8316 7.00494C21.5835 6.83778 21.291 6.74897 20.9919 6.75H17.75V6C17.75 5.80109 17.671 5.61032 17.5303 5.46967C17.3897 5.32902 17.1989 5.25 17 5.25H2.75C2.35218 5.25 1.97064 5.40804 1.68934 5.68934C1.40804 5.97064 1.25 6.35218 1.25 6.75V17.25C1.25 17.6478 1.40804 18.0294 1.68934 18.3107C1.97064 18.592 2.35218 18.75 2.75 18.75H4.34375C4.50898 19.3953 4.88428 19.9673 5.41048 20.3757C5.93669 20.7842 6.58387 21.0059 7.25 21.0059C7.91613 21.0059 8.56331 20.7842 9.08952 20.3757C9.61573 19.9673 9.99102 19.3953 10.1563 18.75H14.8438C15.009 19.3953 15.3843 19.9673 15.9105 20.3757C16.4367 20.7842 17.0839 21.0059 17.75 21.0059C18.4161 21.0059 19.0633 20.7842 19.5895 20.3757C20.1157 19.9673 20.491 19.3953 20.6563 18.75H22.25C22.6478 18.75 23.0294 18.592 23.3107 18.3107C23.592 18.0294 23.75 17.6478 23.75 17.25V11.25C23.7503 11.1536 23.7318 11.0581 23.6956 10.9688ZM17.75 8.25H20.9919L21.8919 10.5H17.75V8.25ZM2.75 6.75H16.25V12.75H2.75V6.75ZM7.25 19.5C6.95333 19.5 6.66332 19.412 6.41665 19.2472C6.16997 19.0824 5.97771 18.8481 5.86418 18.574C5.75065 18.2999 5.72094 17.9983 5.77882 17.7074C5.8367 17.4164 5.97956 17.1491 6.18934 16.9393C6.39912 16.7296 6.66639 16.5867 6.95737 16.5288C7.24834 16.4709 7.54994 16.5006 7.82403 16.6142C8.09811 16.7277 8.33238 16.92 8.4972 17.1666C8.66203 17.4133 8.75 17.7033 8.75 18C8.75 18.3978 8.59197 18.7794 8.31066 19.0607C8.02936 19.342 7.64783 19.5 7.25 19.5ZM14.8438 17.25H10.1563C9.99102 16.6047 9.61573 16.0327 9.08952 15.6243C8.56331 15.2158 7.91613 14.9941 7.25 14.9941C6.58387 14.9941 5.93669 15.2158 5.41048 15.6243C4.88428 16.0327 4.50898 16.6047 4.34375 17.25H2.75V14.25H16.25V15.4041C15.9051 15.6034 15.6032 15.8692 15.3619 16.1861C15.1205 16.5029 14.9444 16.8646 14.8438 17.25ZM17.75 19.5C17.4533 19.5 17.1633 19.412 16.9166 19.2472C16.67 19.0824 16.4777 18.8481 16.3642 18.574C16.2507 18.2999 16.2209 17.9983 16.2788 17.7074C16.3367 17.4164 16.4796 17.1491 16.6893 16.9393C16.8991 16.7296 17.1664 16.5867 17.4574 16.5288C17.7483 16.4709 18.0499 16.5006 18.324 16.6142C18.5981 16.7277 18.8324 16.92 18.9972 17.1666C19.162 17.4133 19.25 17.7033 19.25 18C19.25 18.3978 19.092 18.7794 18.8107 19.0607C18.5294 19.342 18.1478 19.5 17.75 19.5ZM22.25 17.25H20.6563C20.489 16.6063 20.113 16.0362 19.5871 15.629C19.0612 15.2218 18.4151 15.0006 17.75 15V12H22.25V17.25Z" fill="#4F88FC"/>
</svg>
