<svg width="36" height="36" viewBox="0 0 36 36" fill="none" xmlns="http://www.w3.org/2000/svg">
<path d="M32.2963 30.7041L25.2552 23.6645C27.296 21.2143 28.3136 18.0718 28.0964 14.8905C27.8792 11.7092 26.4439 8.73409 24.089 6.5841C21.7342 4.43411 18.6411 3.27475 15.4532 3.3472C12.2653 3.41965 9.22808 4.71833 6.97333 6.97308C4.71857 9.22784 3.41989 12.2651 3.34744 15.4529C3.27499 18.6408 4.43435 21.7339 6.58434 24.0888C8.73434 26.4436 11.7094 27.879 14.8907 28.0962C18.072 28.3134 21.2146 27.2957 23.6647 25.2549L30.7044 32.296C30.8089 32.4005 30.933 32.4835 31.0696 32.54C31.2061 32.5966 31.3525 32.6257 31.5003 32.6257C31.6481 32.6257 31.7945 32.5966 31.9311 32.54C32.0676 32.4835 32.1917 32.4005 32.2963 32.296C32.4008 32.1915 32.4837 32.0674 32.5403 31.9308C32.5968 31.7943 32.6259 31.6479 32.6259 31.5001C32.6259 31.3523 32.5968 31.2059 32.5403 31.0693C32.4837 30.9328 32.4008 30.8087 32.2963 30.7041ZM5.62532 15.7501C5.62532 13.7475 6.21914 11.79 7.33169 10.1249C8.44424 8.45988 10.0255 7.16213 11.8757 6.3958C13.7258 5.62946 15.7616 5.42895 17.7256 5.81963C19.6897 6.2103 21.4938 7.17461 22.9098 8.59062C24.3258 10.0066 25.2901 11.8107 25.6808 13.7748C26.0714 15.7388 25.8709 17.7746 25.1046 19.6247C24.3383 21.4748 23.0405 23.0562 21.3755 24.1687C19.7104 25.2813 17.7529 25.8751 15.7503 25.8751C13.0659 25.8721 10.4923 24.8044 8.59415 22.9062C6.69599 21.0081 5.6283 18.4345 5.62532 15.7501Z" fill="white"/>
</svg>
