<svg width="209" height="50" viewBox="0 0 209 50" fill="none" xmlns="http://www.w3.org/2000/svg">
<g clip-path="url(#clip0_5455_2375)">
<path d="M40.3306 12.7812C37.9358 12.7816 35.7245 14.0643 34.5353 16.143L28.7575 26.1504H35.1477L36.053 24.5824L36.1209 24.465L39.3331 18.905C39.3393 18.8937 39.3457 18.8826 39.3523 18.8715L39.3742 18.8339L39.3754 18.8318L39.3794 18.833C39.5897 18.5116 39.9474 18.3172 40.3316 18.3156H46.9095H49.2566H55.647L58.8422 12.7813H52.4521H42.8667L40.3306 12.7812ZM38.653 26.1502L28.7571 26.1509L25.5619 31.6853H35.1475L35.1476 31.6851L41.8479 31.6848L45.0431 26.1506H38.6529L38.653 26.1502Z" fill="url(#paint0_linear_5455_2375)"/>
<path d="M61.4437 18.3145V18.3156H49.2569L38.3427 37.2195H44.7329H54.3184L56.8988 32.7503L54.3187 37.2193H56.8715L56.8716 37.219C58.0648 37.2155 59.2352 36.8925 60.2612 36.2834C61.2872 35.6743 62.1312 34.8015 62.7056 33.7557L62.708 33.7576L63.4555 32.4629L66.6501 26.9297H66.6525V26.9287L64.8744 23.8488L61.6798 18.3157H61.5741V18.3145L61.4437 18.3145ZM52.4525 23.849L58.4836 23.8499L60.2614 26.9285L61.5396 26.9287H60.2612L57.8301 31.1394C57.7281 31.3055 57.5854 31.4428 57.4155 31.5383C57.2456 31.6338 57.0541 31.6842 56.8592 31.6849H56.8567C56.8567 31.6849 56.8568 31.6849 56.8567 31.6849L47.9276 31.6853L52.4525 23.849Z" fill="#105DFB"/>
<path d="M15.9762 31.6851L25.5622 31.6846L22.3666 37.2194H12.781L15.9762 31.6851Z" fill="#9060F2"/>
<path d="M76.243 31.3462L79.0168 18.3149H84.3038L84.8622 22.6152L85.3649 26.9342L87.7477 22.6152L90.1306 18.3149H95.6967L92.9043 31.3462H89.3115L90.7263 24.8119L91.3034 22.1871L89.8699 24.8119L86.2771 31.3462H82.7773L81.6231 22.1498L81.0832 24.8119L79.7242 31.3462H76.243Z" fill="#2A2A9C"/>
<path d="M100.85 31.6628C97.4624 31.6628 94.9865 29.9501 94.9865 26.9529C94.9865 26.562 95.0237 26.1338 95.1167 25.687C95.7683 22.4665 98.6724 20.6421 101.967 20.6421C105.337 20.6421 107.831 22.3548 107.831 25.3333C107.831 25.7243 107.776 26.1524 107.683 26.5992C107.031 29.8384 104.127 31.6628 100.85 31.6628ZM100.981 29.1124C102.34 29.1124 103.587 28.256 103.997 26.3014C104.071 25.9849 104.09 25.687 104.09 25.4078C104.09 23.993 103.233 23.2111 101.837 23.2111C100.478 23.2111 99.2123 24.0488 98.8027 26.0221C98.7283 26.3386 98.7097 26.6364 98.7097 26.9157C98.7097 28.3305 99.566 29.1124 100.981 29.1124Z" fill="#2A2A9C"/>
<path d="M110.424 31.3462L107.929 20.9585H111.764L112.453 24.4583L113.123 27.9023L115.264 24.4583L117.423 20.9585H121.463L114.538 31.3462H110.424Z" fill="#2A2A9C"/>
<path d="M125.46 31.6628C122.09 31.6628 119.856 29.7453 119.856 26.8971C119.856 26.5434 119.893 26.1524 119.968 25.7615C120.601 22.634 123.319 20.6421 126.763 20.6421C130.039 20.6421 132.329 22.4478 132.329 25.2589C132.329 25.7243 132.273 26.1338 132.18 26.5992H123.505C123.486 26.7295 123.486 26.8785 123.486 27.0088C123.486 28.4236 124.324 29.2055 125.702 29.2055C126.819 29.2055 127.712 28.6656 128.271 27.4555H131.882C130.84 30.1549 128.457 31.6628 125.46 31.6628ZM126.576 23.025C125.515 23.025 124.529 23.6393 123.971 24.8865H128.829C128.792 23.751 127.824 23.025 126.576 23.025Z" fill="#2A2A9C"/>
<path d="M132.145 31.3459L134.36 20.9582H138.176L137.823 22.615C138.809 21.4236 140.056 20.7534 141.695 20.7534C141.862 20.7534 142.03 20.7534 142.197 20.772L141.546 23.9181C141.118 23.7878 140.652 23.732 140.168 23.732C139.088 23.732 138.027 24.0857 137.357 24.7931L135.98 31.3459H132.145Z" fill="#2A2A9C"/>
<path d="M147.332 31.6441C144.13 31.6441 141.598 30.2851 141.356 27.53H144.875C144.987 28.8145 146.122 29.4474 147.406 29.4474C148.412 29.4474 149.305 29.1309 149.305 28.4608C149.305 27.8278 148.207 27.5858 146.867 27.3066C144.8 26.897 142.138 26.3944 142.138 24.328C142.138 21.8893 144.744 20.6606 147.537 20.6606C150.683 20.6606 153.289 21.9451 153.568 24.6259H150.087C149.845 23.453 148.821 22.8946 147.499 22.8946C146.606 22.8946 145.787 23.211 145.787 23.7881C145.787 24.4211 146.997 24.6631 148.412 24.9423C150.459 25.3519 152.973 25.8731 152.973 27.8837C152.973 30.3782 150.18 31.6441 147.332 31.6441Z" fill="#2A2A9C"/>
<path d="M153.325 31.3462L156.098 18.3149H160.083L159.021 23.2854H165.016L166.077 18.3149H170.061L167.287 31.3462H163.303L164.42 26.0778H158.425L157.309 31.3462H153.325Z" fill="#2A2A9C"/>
<path d="M173.046 31.5882C170.719 31.5882 169.211 30.1176 169.211 28.1257C169.211 27.8278 169.23 27.53 169.304 27.2135L170.644 20.9585H174.461L173.195 26.8784C173.157 27.0645 173.139 27.2321 173.139 27.3996C173.139 28.3863 173.79 28.982 174.945 28.982C175.708 28.982 176.471 28.6469 176.992 28.1443L178.519 20.9585H182.335L180.157 31.3462H176.322L176.564 30.1734C175.615 31.067 174.405 31.5882 173.046 31.5882Z" fill="#2A2A9C"/>
<path d="M181.357 31.3462L184.131 18.3149H187.947L187.109 22.2429C188.115 21.2377 189.418 20.7164 190.833 20.7164C193.588 20.7164 195.338 22.4849 195.338 25.1284C195.338 25.5752 195.3 26.0406 195.189 26.5432C194.537 29.6521 192.192 31.5881 189.325 31.5881C187.556 31.5881 186.234 30.8249 185.564 29.5218L185.173 31.3462H181.357ZM188.468 29.1122C189.939 29.1122 191.093 28.1255 191.484 26.3012C191.559 25.9661 191.596 25.6496 191.596 25.3704C191.596 23.9742 190.74 23.2109 189.306 23.2109C187.836 23.2109 186.644 24.179 186.272 26.022C186.197 26.3384 186.179 26.6363 186.179 26.9155C186.179 28.3303 187.035 29.1122 188.468 29.1122Z" fill="#2A2A9C"/>
<path d="M76.243 31.3462L79.0168 18.3149H84.3038L84.8622 22.6152L85.3649 26.9342L87.7477 22.6152L90.1306 18.3149H95.6967L92.9043 31.3462H89.3115L90.7263 24.8119L91.3034 22.1871L89.8699 24.8119L86.2771 31.3462H82.7773L81.6231 22.1498L81.0832 24.8119L79.7242 31.3462H76.243Z" fill="#2A2A9C"/>
<path d="M100.85 31.6628C97.4624 31.6628 94.9865 29.9501 94.9865 26.9529C94.9865 26.562 95.0237 26.1338 95.1167 25.687C95.7683 22.4665 98.6724 20.6421 101.967 20.6421C105.337 20.6421 107.831 22.3548 107.831 25.3333C107.831 25.7243 107.776 26.1524 107.683 26.5992C107.031 29.8384 104.127 31.6628 100.85 31.6628ZM100.981 29.1124C102.34 29.1124 103.587 28.256 103.997 26.3014C104.071 25.9849 104.09 25.687 104.09 25.4078C104.09 23.993 103.233 23.2111 101.837 23.2111C100.478 23.2111 99.2123 24.0488 98.8027 26.0221C98.7283 26.3386 98.7097 26.6364 98.7097 26.9157C98.7097 28.3305 99.566 29.1124 100.981 29.1124Z" fill="#2A2A9C"/>
<path d="M110.424 31.3462L107.929 20.9585H111.764L112.453 24.4583L113.123 27.9023L115.264 24.4583L117.423 20.9585H121.463L114.538 31.3462H110.424Z" fill="#2A2A9C"/>
<path d="M125.46 31.6628C122.09 31.6628 119.856 29.7453 119.856 26.8971C119.856 26.5434 119.893 26.1524 119.968 25.7615C120.601 22.634 123.319 20.6421 126.763 20.6421C130.039 20.6421 132.329 22.4478 132.329 25.2589C132.329 25.7243 132.273 26.1338 132.18 26.5992H123.505C123.486 26.7295 123.486 26.8785 123.486 27.0088C123.486 28.4236 124.324 29.2055 125.702 29.2055C126.819 29.2055 127.712 28.6656 128.271 27.4555H131.882C130.84 30.1549 128.457 31.6628 125.46 31.6628ZM126.576 23.025C125.515 23.025 124.529 23.6393 123.971 24.8865H128.829C128.792 23.751 127.824 23.025 126.576 23.025Z" fill="#2A2A9C"/>
<path d="M132.145 31.3459L134.36 20.9582H138.176L137.823 22.615C138.809 21.4236 140.056 20.7534 141.695 20.7534C141.862 20.7534 142.03 20.7534 142.197 20.772L141.546 23.9181C141.118 23.7878 140.652 23.732 140.168 23.732C139.088 23.732 138.027 24.0857 137.357 24.7931L135.98 31.3459H132.145Z" fill="#2A2A9C"/>
<path d="M147.332 31.6441C144.13 31.6441 141.598 30.2851 141.356 27.53H144.875C144.987 28.8145 146.122 29.4474 147.406 29.4474C148.412 29.4474 149.305 29.1309 149.305 28.4608C149.305 27.8278 148.207 27.5858 146.867 27.3066C144.8 26.897 142.138 26.3944 142.138 24.328C142.138 21.8893 144.744 20.6606 147.537 20.6606C150.683 20.6606 153.289 21.9451 153.568 24.6259H150.087C149.845 23.453 148.821 22.8946 147.499 22.8946C146.606 22.8946 145.787 23.211 145.787 23.7881C145.787 24.4211 146.997 24.6631 148.412 24.9423C150.459 25.3519 152.973 25.8731 152.973 27.8837C152.973 30.3782 150.18 31.6441 147.332 31.6441Z" fill="#2A2A9C"/>
<path d="M153.325 31.3462L156.098 18.3149H160.083L159.021 23.2854H165.016L166.077 18.3149H170.061L167.287 31.3462H163.303L164.42 26.0778H158.425L157.309 31.3462H153.325Z" fill="#2A2A9C"/>
<path d="M173.046 31.5882C170.719 31.5882 169.211 30.1176 169.211 28.1257C169.211 27.8278 169.23 27.53 169.304 27.2135L170.644 20.9585H174.461L173.195 26.8784C173.157 27.0645 173.139 27.2321 173.139 27.3996C173.139 28.3863 173.79 28.982 174.945 28.982C175.708 28.982 176.471 28.6469 176.992 28.1443L178.519 20.9585H182.335L180.157 31.3462H176.322L176.564 30.1734C175.615 31.067 174.405 31.5882 173.046 31.5882Z" fill="#2A2A9C"/>
<path d="M181.357 31.3462L184.131 18.3149H187.947L187.109 22.2429C188.115 21.2377 189.418 20.7164 190.833 20.7164C193.588 20.7164 195.338 22.4849 195.338 25.1284C195.338 25.5752 195.3 26.0406 195.189 26.5432C194.537 29.6521 192.192 31.5881 189.325 31.5881C187.556 31.5881 186.234 30.8249 185.564 29.5218L185.173 31.3462H181.357ZM188.468 29.1122C189.939 29.1122 191.093 28.1255 191.484 26.3012C191.559 25.9661 191.596 25.6496 191.596 25.3704C191.596 23.9742 190.74 23.2109 189.306 23.2109C187.836 23.2109 186.644 24.179 186.272 26.022C186.197 26.3384 186.179 26.6363 186.179 26.9155C186.179 28.3303 187.035 29.1122 188.468 29.1122Z" fill="#2A2A9C"/>
</g>
<defs>
<linearGradient id="paint0_linear_5455_2375" x1="25.5619" y1="22.2333" x2="58.8422" y2="22.2333" gradientUnits="userSpaceOnUse">
<stop stop-color="#105DFB"/>
<stop offset="0.7" stop-color="#2A2A9C"/>
</linearGradient>
<clipPath id="clip0_5455_2375">
<rect width="208.135" height="50" fill="white"/>
</clipPath>
</defs>
</svg>
