<svg width="198" height="100" viewBox="0 0 198 100" fill="none" xmlns="http://www.w3.org/2000/svg">
<g clip-path="url(#clip0_5546_404)">
<path d="M92.9831 17.5259C89.7056 17.5264 86.6793 19.2847 85.0517 22.134L77.1443 35.8516H85.8899L91.6179 25.92C91.6265 25.9045 91.6352 25.8892 91.6442 25.8741L91.6741 25.8224L91.6758 25.8197L91.6813 25.8212C91.9692 25.3807 92.4587 25.1143 92.9844 25.1121H113.945L118.318 17.5259L92.9831 17.5259Z" fill="white"/>
<path fill-rule="evenodd" clip-rule="evenodd" d="M90.6872 35.8513L77.1438 35.8523L72.7713 43.4378L59.6522 43.4385L55.2793 51.0246H68.398L72.771 43.4385H85.8896L85.8897 43.4382L94.6358 43.4379L90.2624 51.0246H112.127L115.658 44.8985L112.127 51.0243H115.621L115.621 51.024C117.254 51.0192 118.856 50.5763 120.26 49.7415C121.664 48.9066 122.819 47.7102 123.605 46.2766L123.608 46.2793L129.004 36.9199H129.007V36.9186L122.201 25.1123H122.057V25.1108L121.878 25.1106V25.1122H105.199L99.0087 35.8518H90.6871L90.6872 35.8513ZM109.573 32.697L117.827 32.6983L120.26 36.9182L122.009 36.9186H120.26L116.933 42.6904C116.793 42.9181 116.598 43.1063 116.365 43.2371C116.133 43.368 115.871 43.4371 115.604 43.438L103.38 43.4387L109.573 32.697Z" fill="white"/>
<path d="M17.5083 82.0439L21.3045 64.1814H28.5401L29.3044 70.076L29.9923 75.9961L33.2534 70.076L36.5146 64.1814H44.1324L40.3107 82.0439H35.3936L37.3299 73.0871L38.1196 69.4891L36.1579 73.0871L31.2407 82.0439H26.4509L24.8713 69.4381L24.1325 73.0871L22.2726 82.0439H17.5083Z" fill="white"/>
<path d="M51.1855 82.4776C46.5486 82.4776 43.16 80.13 43.16 76.0216C43.16 75.4858 43.211 74.8988 43.3384 74.2864C44.2301 69.8718 48.2046 67.3711 52.7141 67.3711C57.3256 67.3711 60.7396 69.7188 60.7396 73.8016C60.7396 74.3374 60.6631 74.9243 60.5357 75.5368C59.644 79.9769 55.6695 82.4776 51.1855 82.4776ZM51.3638 78.9817C53.2237 78.9817 54.9307 77.8079 55.4912 75.1285C55.5931 74.6947 55.6186 74.2864 55.6186 73.9036C55.6186 71.9643 54.4466 70.8925 52.5358 70.8925C50.6759 70.8925 48.9434 72.0409 48.3829 74.7457C48.281 75.1795 48.2556 75.5878 48.2556 75.9706C48.2556 77.9099 49.4275 78.9817 51.3638 78.9817Z" fill="white"/>
<path d="M64.2875 82.0439L60.8735 67.8049H66.1219L67.0646 72.6023L67.9818 77.3231L70.9117 72.6023L73.8671 67.8049H79.3956L69.9181 82.0439H64.2875Z" fill="white"/>
<path d="M84.8656 82.4776C80.2541 82.4776 77.1967 79.8493 77.1967 75.9451C77.1967 75.4602 77.2476 74.9243 77.3495 74.3885C78.2162 70.1015 81.9354 67.3711 86.6488 67.3711C91.1334 67.3711 94.2667 69.8463 94.2667 73.6995C94.2667 74.3374 94.1903 74.8988 94.0629 75.5368H82.1902C82.1647 75.7154 82.1647 75.9196 82.1647 76.0982C82.1647 78.0375 83.3116 79.1093 85.1967 79.1093C86.7257 79.1093 87.9485 78.3692 88.7127 76.7106H93.6553C92.2288 80.4107 88.9675 82.4776 84.8656 82.4776ZM86.394 70.6374C84.942 70.6374 83.5918 71.4795 82.8276 73.1891H89.477C89.426 71.6326 88.1014 70.6374 86.394 70.6374Z" fill="white"/>
<path d="M94.0146 82.0438L97.0467 67.8049H102.269L101.785 70.0759C103.136 68.4428 104.842 67.5242 107.085 67.5242C107.314 67.5242 107.543 67.5242 107.772 67.5497L106.881 71.8622C106.295 71.6836 105.658 71.607 104.995 71.607C103.518 71.607 102.066 72.0918 101.148 73.0615L99.2629 82.0438H94.0146Z" fill="white"/>
<path d="M114.799 82.4522C110.417 82.4522 106.953 80.5894 106.621 76.8128H111.437C111.59 78.5735 113.144 79.4411 114.901 79.4411C116.277 79.4411 117.5 79.0073 117.5 78.0887C117.5 77.2211 115.997 76.8893 114.162 76.5066C111.334 75.9452 107.691 75.2562 107.691 72.4237C107.691 69.0809 111.258 67.3967 115.08 67.3967C119.385 67.3967 122.952 69.1575 123.334 72.832H118.57C118.239 71.2244 116.838 70.4588 115.029 70.4588C113.806 70.4588 112.685 70.8926 112.685 71.6837C112.685 72.5513 114.341 72.8831 116.277 73.2658C119.08 73.8272 122.519 74.5417 122.519 77.2976C122.519 80.717 118.697 82.4522 114.799 82.4522Z" fill="white"/>
<path d="M123.002 82.0439L126.797 64.1814H132.25L130.797 70.9946H139.001L140.454 64.1814H145.906L142.11 82.0439H136.658L138.186 74.8223H129.982L128.454 82.0439H123.002Z" fill="white"/>
<path d="M149.991 82.3756C146.807 82.3756 144.743 80.3597 144.743 77.6293C144.743 77.221 144.768 76.8127 144.87 76.3789L146.704 67.8049H151.928L150.195 75.9196C150.144 76.1747 150.118 76.4044 150.118 76.6341C150.118 77.9865 151.01 78.8031 152.59 78.8031C153.634 78.8031 154.679 78.3438 155.392 77.6548L157.482 67.8049H162.704L159.723 82.0439H154.475L154.806 80.4362C153.507 81.6611 151.851 82.3756 149.991 82.3756Z" fill="white"/>
<path d="M161.366 82.0439L165.162 64.1814H170.385L169.238 69.5656C170.614 68.1877 172.397 67.4732 174.334 67.4732C178.104 67.4732 180.499 69.8974 180.499 73.5209C180.499 74.1333 180.448 74.7713 180.296 75.4603C179.404 79.7217 176.194 82.3755 172.27 82.3755C169.85 82.3755 168.041 81.3293 167.124 79.5431L166.589 82.0439H161.366ZM171.098 78.9817C173.111 78.9817 174.691 77.6292 175.226 75.1285C175.327 74.6692 175.378 74.2354 175.378 73.8526C175.378 71.9388 174.207 70.8926 172.245 70.8926C170.232 70.8926 168.601 72.2195 168.092 74.7458C167.99 75.1796 167.964 75.5878 167.964 75.9706C167.964 77.9099 169.136 78.9817 171.098 78.9817Z" fill="white"/>
<path d="M17.5083 82.0439L21.3045 64.1814H28.5401L29.3044 70.076L29.9923 75.9961L33.2534 70.076L36.5146 64.1814H44.1324L40.3107 82.0439H35.3936L37.3299 73.0871L38.1196 69.4891L36.1579 73.0871L31.2407 82.0439H26.4509L24.8713 69.4381L24.1325 73.0871L22.2726 82.0439H17.5083Z" fill="white"/>
<path d="M51.1855 82.4776C46.5486 82.4776 43.16 80.13 43.16 76.0216C43.16 75.4858 43.211 74.8988 43.3384 74.2864C44.2301 69.8718 48.2046 67.3711 52.7141 67.3711C57.3256 67.3711 60.7396 69.7188 60.7396 73.8016C60.7396 74.3374 60.6631 74.9243 60.5357 75.5368C59.644 79.9769 55.6695 82.4776 51.1855 82.4776ZM51.3638 78.9817C53.2237 78.9817 54.9307 77.8079 55.4912 75.1285C55.5931 74.6947 55.6186 74.2864 55.6186 73.9036C55.6186 71.9643 54.4466 70.8925 52.5358 70.8925C50.6759 70.8925 48.9434 72.0409 48.3829 74.7457C48.281 75.1795 48.2556 75.5878 48.2556 75.9706C48.2556 77.9099 49.4275 78.9817 51.3638 78.9817Z" fill="white"/>
<path d="M64.2875 82.0439L60.8735 67.8049H66.1219L67.0646 72.6023L67.9818 77.3231L70.9117 72.6023L73.8671 67.8049H79.3956L69.9181 82.0439H64.2875Z" fill="white"/>
<path d="M84.8656 82.4776C80.2541 82.4776 77.1967 79.8493 77.1967 75.9451C77.1967 75.4602 77.2476 74.9243 77.3495 74.3885C78.2162 70.1015 81.9354 67.3711 86.6488 67.3711C91.1334 67.3711 94.2667 69.8463 94.2667 73.6995C94.2667 74.3374 94.1903 74.8988 94.0629 75.5368H82.1902C82.1647 75.7154 82.1647 75.9196 82.1647 76.0982C82.1647 78.0375 83.3116 79.1093 85.1967 79.1093C86.7257 79.1093 87.9485 78.3692 88.7127 76.7106H93.6553C92.2288 80.4107 88.9675 82.4776 84.8656 82.4776ZM86.394 70.6374C84.942 70.6374 83.5918 71.4795 82.8276 73.1891H89.477C89.426 71.6326 88.1014 70.6374 86.394 70.6374Z" fill="white"/>
<path d="M94.0146 82.0438L97.0467 67.8049H102.269L101.785 70.0759C103.136 68.4428 104.842 67.5242 107.085 67.5242C107.314 67.5242 107.543 67.5242 107.772 67.5497L106.881 71.8622C106.295 71.6836 105.658 71.607 104.995 71.607C103.518 71.607 102.066 72.0918 101.148 73.0615L99.2629 82.0438H94.0146Z" fill="white"/>
<path d="M114.799 82.4522C110.417 82.4522 106.953 80.5894 106.621 76.8128H111.437C111.59 78.5735 113.144 79.4411 114.901 79.4411C116.277 79.4411 117.5 79.0073 117.5 78.0887C117.5 77.2211 115.997 76.8893 114.162 76.5066C111.334 75.9452 107.691 75.2562 107.691 72.4237C107.691 69.0809 111.258 67.3967 115.08 67.3967C119.385 67.3967 122.952 69.1575 123.334 72.832H118.57C118.239 71.2244 116.838 70.4588 115.029 70.4588C113.806 70.4588 112.685 70.8926 112.685 71.6837C112.685 72.5513 114.341 72.8831 116.277 73.2658C119.08 73.8272 122.519 74.5417 122.519 77.2976C122.519 80.717 118.697 82.4522 114.799 82.4522Z" fill="white"/>
<path d="M123.002 82.0439L126.797 64.1814H132.25L130.797 70.9946H139.001L140.454 64.1814H145.906L142.11 82.0439H136.658L138.186 74.8223H129.982L128.454 82.0439H123.002Z" fill="white"/>
<path d="M149.991 82.3756C146.807 82.3756 144.743 80.3597 144.743 77.6293C144.743 77.221 144.768 76.8127 144.87 76.3789L146.704 67.8049H151.928L150.195 75.9196C150.144 76.1747 150.118 76.4044 150.118 76.6341C150.118 77.9865 151.01 78.8031 152.59 78.8031C153.634 78.8031 154.679 78.3438 155.392 77.6548L157.482 67.8049H162.704L159.723 82.0439H154.475L154.806 80.4362C153.507 81.6611 151.851 82.3756 149.991 82.3756Z" fill="white"/>
<path d="M161.366 82.0439L165.162 64.1814H170.385L169.238 69.5656C170.614 68.1877 172.397 67.4732 174.334 67.4732C178.104 67.4732 180.499 69.8974 180.499 73.5209C180.499 74.1333 180.448 74.7713 180.296 75.4603C179.404 79.7217 176.194 82.3755 172.27 82.3755C169.85 82.3755 168.041 81.3293 167.124 79.5431L166.589 82.0439H161.366ZM171.098 78.9817C173.111 78.9817 174.691 77.6292 175.226 75.1285C175.327 74.6692 175.378 74.2354 175.378 73.8526C175.378 71.9388 174.207 70.8926 172.245 70.8926C170.232 70.8926 168.601 72.2195 168.092 74.7458C167.99 75.1796 167.964 75.5878 167.964 75.9706C167.964 77.9099 169.136 78.9817 171.098 78.9817Z" fill="white"/>
</g>
<defs>
<clipPath id="clip0_5546_404">
<rect width="198" height="100" fill="white"/>
</clipPath>
</defs>
</svg>
